<svg xmlns="http://www.w3.org/2000/svg" width="215" height="44" viewBox="0 0 215 44"><path d="M27.08307,20.28022c-.20819.03014-.4213.05067-.48135.2731a.15968.15968,0,0,1-.10278.07863c-.39378.10489-.73161.31062-1.11281.4374-.89184.2966-1.78156.59791-2.67707.88636-.2326.07492-.041.05717.01164.09109.10133.06533.02353.12876-.04217.14245-.2626.05473-.48406.19795-.73887.25363a10.43806,10.43806,0,0,0-1.388.4815,23.79824,23.79824,0,0,1-3.01324.83489c-1.23038.27767-2.48123.46876-3.71593.72418a7.07412,7.07412,0,0,1-1.62287.21334,1.39857,1.39857,0,0,0-.27819.03294c-.62927.11256-1.26759.15777-1.90651.21311a20.3658,20.3658,0,0,1-2.26265.06183c-.58092-.01429-1.16112-.04963-1.74166-.07523a.33983.33983,0,0,1-.25316-.08475.17114.17114,0,0,0-.11947-.048,7.73331,7.73331,0,0,1-1.93632-.21792A11.16908,11.16908,0,0,1,2.135,24.3669a7.13781,7.13781,0,0,1-1.76657-.50673.53548.53548,0,0,0-.17668-.04749C.1011,23.798-.02068,23.80116.003,23.69c.01766-.08293.123-.11111.22114-.12543a6.6117,6.6117,0,0,1,1.02557.096,5.67126,5.67126,0,0,0,1.33131.07.3177.3177,0,0,1,.22405.03156.93734.93734,0,0,0,.62632.11837c.26812.00565.53654.00287.80481.001.629-.00445,1.24824.08682,1.8722.12983.54476.03755,1.09456.03422,1.642.03031a17.44681,17.44681,0,0,0,2.85236-.22987.90822.90822,0,0,1,.23116.01233,2.39066,2.39066,0,0,0,.77361-.05443,1.11537,1.11537,0,0,1,.6787-.078c.04428.01583.119-.02217.17675-.04149a22.85709,22.85709,0,0,1,3.10319-.64517,5.32878,5.32878,0,0,1,1.06036-.17978,12.21664,12.21664,0,0,1,1.72643-.50648c1.12955-.3645,2.26121-.72431,3.39084-1.08862,1.30546-.421,2.61569-.83207,3.91293-1.27056q2.53587-.85713,5.05227-1.75517c.651-.233,1.268-.53337,1.90926-.787a4.06858,4.06858,0,0,0,1.07741-.76282c.32671-.2685.682-.506,1.02-.76106.10376-.07831.2239-.14676.31829-.23448a7.36584,7.36584,0,0,1,1.245-.91347,5.12232,5.12232,0,0,0,.44866-.40453c.46946-.35608,1.01736-.62668,1.47218-.9977a.89822.89822,0,0,0,.25177-.27978l-.00533.00454c.25357-.00926.45459-.07393.47876-.325l-.005.00423a1.61239,1.61239,0,0,0,.84752-.38645,9.32609,9.32609,0,0,1,1.2284-.7751.557.557,0,0,0,.19888-.1044,4.71735,4.71735,0,0,1,1.20485-.73406A12.15493,12.15493,0,0,0,44.161,9.62494a4.17718,4.17718,0,0,1,.91519-.48252c.3457-.17647.62666-.42819.99657-.57531.10687-.04251.1846-.13812.31742-.15778.09586-.01419.10725-.08553.11332-.15376L46.49765,8.26a1.64814,1.64814,0,0,0,.23189-.03c.05089-.01362.14355-.05722.07433-.10611-.19221-.13575-.05722-.19684.06568-.26449.4217-.2321.83161-.48232,1.27-.68928.68715-.3244,1.32025-.71813,1.98751-1.06764A10.16492,10.16492,0,0,1,51.706,5.4218a2.82581,2.82581,0,0,0,.53849-.12016c.34651-.212.79678-.10419,1.13926-.30438.0829-.04846.18076.00427.26866.03472.10121.03507.2181.10606.30674.08764.55485-.11531,1.08793.205,1.65437.03311a1.18712,1.18712,0,0,1,.72016.132,6.27966,6.27966,0,0,1,.61492.291.26691.26691,0,0,1,.10107.43926,1.12433,1.12433,0,0,1-.312.24072,15.09628,15.09628,0,0,0-1.79158,1.22678c-1.01034.712-2.0036,1.4409-3.07817,2.087-.43451.26127-.84106.55985-1.28693.80874-.891.49733-1.73972,1.04822-2.68884,1.473a4.52583,4.52583,0,0,0-1.04447.5561,1.19955,1.19955,0,0,1-.19606.10741c-.0063.00336-.529.29881-.53412.29966-.03064.00509-.06157.00889-.0924.01312a.13591.13591,0,0,0-.01887-.03054c-.00525-.00516-.01735-.00531-.02638-.00772l.05082.03331c-.10579.07494-.20591.15675-.31861.22332a.85413.85413,0,0,1-.66715.194c-.12165-.02756-.1961.05858-.24837.14531l-.00185.00169c-.0715.02951-.06738.05674.00347.08193l-.0047-.004a.26859.26859,0,0,1-.28369.15951l.0045.00423-.00611-.08447a.19731.19731,0,0,0,.03966-.01182c.00717-.00387.00944-.01425.01391-.02171l-.048.03837-.09889.0785.00293-.00237a.71122.71122,0,0,0-.47691.24311l.00471-.00354c-.17679.05732-.41639.04129-.42188.28987-.00126.05744-.098.1124-.1847.08846a.68935.68935,0,0,0-.5568.15192c-.27669.17287-.60273.27611-.86107.469a.38847.38847,0,0,1-.20357.09414c-.39823-.00495-.68091.25741-1.05487.3117-.23842.03461-.37417.23572-.59467.317-.20729.07636-.43331-.04985-.63585.07149-.19.11381-.44555.13538-.60757.29438l.00553-.00477a2.45427,2.45427,0,0,0-.67959.26844,6.13065,6.13065,0,0,0-1.10313.56719c-.32263.2532-.677.479-.98379.74461-.28752.24894-.613.45861-.92465.68a2.14284,2.14284,0,0,0-.48125.4649l.005.00419c-.0308-.06969-.064-.05739-.09844-.00205l.00065-.00049c-.09794.02734-.26114.02812-.09313.16371L34.467,18.8337a1.24326,1.24326,0,0,1-.76909.607c-.13415.04549-.26272.08082-.32528.20373a2.17784,2.17784,0,0,1-.5826.58023,11.44891,11.44891,0,0,0-1.21681,1.16069,9.02062,9.02062,0,0,1-.77687.75c-.84571.77143-1.63259,1.58584-2.44525,2.38143-.33946.33233-.70029.64913-1.03674.98357-.47881.476-.94511.961-1.41368,1.44422a.61012.61012,0,0,0-.11308.1747c-.02667.05914.00482.11036.08581.10422a2.45943,2.45943,0,0,1,.95664.15661.85991.85991,0,0,0,.55338-.0208c.36385-.12543.72851-.2494,1.08946-.3806,1.02447-.37237,2.01793-.80094,2.99954-1.24519,1.13455-.51348,2.27609-1.01661,3.389-1.565.95815-.47213,1.943-.90532,2.91305-1.36037,1.7194-.80661,3.47092-1.562,5.22238-2.31617.93752-.40369,1.91691-.7379,2.87888-1.10065.11271-.0425.24859-.0418.1646-.20965-.05585-.11161.07565-.16724.1867-.17871.17157-.01773.3461-.01612.51946-.01988a.55225.55225,0,0,0,.319-.04574.62291.62291,0,0,1,.79255.09988,1.1095,1.1095,0,0,0,.99652.13756.9046.9046,0,0,1,.313.01176c.39785.06268.80383.03179,1.20572.11583a4.45217,4.45217,0,0,1,1.16991.56709.17769.17769,0,0,1,.0877.21513,1.00541,1.00541,0,0,1-.27511.53931c-.47094.4133-1.00021.77146-1.49935,1.15792-.522.40413-1.14506.70636-1.6299,1.15-.0494.0452-.10345.19632-.23946.04783-.04578-.05-.11209.02146-.14165.0616a3.43346,3.43346,0,0,1-.56181.53844,1.739,1.739,0,0,0-.46922,1.14349c-.02922.146.07827.20821.26934.19827a1.3787,1.3787,0,0,0,.277-.04485c.94272-.2487,1.88575-.49665,2.82575-.75258.25322-.06894.49282-.17318.745-.24556.53254-.15289,1.07261-.27989,1.59266-.47183.42942-.15849.91221-.21012,1.36187-.33378a4.26456,4.26456,0,0,0,1.08656-.42449,2.96531,2.96531,0,0,1,.9984-.34205c.34493-.05907.65558-.18086.98314-.26906.55089-.14834,1.09342-.319,1.645-.46525a.56522.56522,0,0,0,.35306-.23733c.18-.26083.358-.522.53174-.78594A7.93663,7.93663,0,0,1,61.158,18.88584c.22422-.18364.46112-.3562.69222-.53382l-.00457.00448c.10348-.06007.20517-.1225.31088-.1796.12483-.06742.28659-.09127.22215-.28762-.03365-.10257.12209-.21274.24276-.20378a1.08118,1.08118,0,0,0,.75722-.32117A12.03689,12.03689,0,0,1,65.37,16.17344a1.07248,1.07248,0,0,0,.347-.26613.75039.75039,0,0,1,.48925-.27565l-.00492-.00415c.06561.09423.13125.08254.19692.00005l-.00479.00406c.33131-.01646.55017-.2441.84854-.32432.08326-.02239.0188-.08586.0254-.13019.01866-.12558.079-.21644.23876-.09307.111.08575.21254.06637.26729-.03541.18515-.3442.54859-.35116.88813-.29906a8.73317,8.73317,0,0,1,2.23629.59248,1.28342,1.28342,0,0,1,.47029.438c.38144.487.3694.59925-.264.99549-.61077.38207-1.30967.63251-1.95.96915-.26655.14012-.51908.30416-.80015.41828-.269.10919-.36706.3628-.63144.46709a8.60716,8.60716,0,0,0-1.04053.60771.19024.19024,0,0,0-.04.01438c-.00686.00433-.00767.01552-.0112.02362l.04542-.04282c.06207.01472.19394-.00566.11385.09847a.97763.97763,0,0,1-.36121.24864q-1.22638.59381-2.48155,1.14214c-.3368.14645-.68.298-1.00457.476a6.05891,6.05891,0,0,1-1.15521.44,1.04409,1.04409,0,0,0-.6947.545,13.70411,13.70411,0,0,0-.56932,1.3038,2.38222,2.38222,0,0,1-.09683.2228c-.00853.01717-.04037.026-.06149.03875a.39118.39118,0,0,1-.03185-.07263c-.01091-.05025.00846-.10661-.04471-.14774-.01855.0358-.03543.07231-.05611.10721a.714.714,0,0,1-.08958.13844c-.24506.25522-.24751.272-.03477.51932.12117.14087.12116.14087-.1579.23443a.13226.13226,0,0,0-.014-.03275c-.00444-.0058-.01642-.00747-.025-.011l.04487.03881a.781.781,0,0,0,.70938.31892,9.51906,9.51906,0,0,0,2.95345-.42114,1.14222,1.14222,0,0,1,.22485-.05449,6.46044,6.46044,0,0,0,1.48415-.34286c.58351-.2092,1.20154-.30122,1.78483-.4908,1.08576-.3529,2.16646-.71706,3.24591-1.08366.46563-.15813.91483-.35261,1.38562-.49777.86969-.26816,1.71426-.58713,2.57291-.87728.40849-.138.81685-.27653,1.22183-.4217.22323-.08.38964-.18544.43183-.42728.03308-.18963.21727-.35286.3105-.53283a7.13476,7.13476,0,0,1,1.599-1.999.41376.41376,0,0,0,.138-.20249c.013-.06979-.26641-.05834-.10287-.20766.07427-.06781.12615-.15376.20345-.21842.08877-.07425.19966-.12922.29183-.20094a10.96955,10.96955,0,0,1,1.01684-.77523c.80372-.48969,1.58219-1.00921,2.41024-1.47016.2339-.13021.48542-.23754.72442-.36146.2062-.10692.4701-.15353.53662-.40657.02188-.08324.16185-.05739.25434-.06083l-.00545-.00477c.03361.07467.06764.059.10185.00033l-.00477.00394c.09-.01172.08564-.15183.21582-.11127a.36081.36081,0,0,0,.30175-.08094c.12107-.07083.23172-.24056.33232-.23283.22844.01755.23121-.16059.351-.20794.19581-.07743.33072-.3421.641-.15761.077.04579.28344-.01646.28528-.16568a.14506.14506,0,0,1,.11378-.14867,8.35551,8.35551,0,0,1,1.49815-.55513,3.96025,3.96025,0,0,1,1.76049-.01182c.04451.013.09629.04673.13184.03705a2.02333,2.02333,0,0,1,.90266.11682,2.75389,2.75389,0,0,0,.78922.06212.54864.54864,0,0,1,.2729.04637,2.37078,2.37078,0,0,1,1.301,1.02358c.07339.1367.24.36534-.14157.461-.07666.01921-.09227.21267-.136.32579l.00477-.00406a9.95251,9.95251,0,0,1-1.21227.87758c-.96852.58936-1.986,1.115-3.00975,1.632a.46214.46214,0,0,0-.08184.03981A11.00164,11.00164,0,0,1,85.26456,17.965c-.3859.17435-.757.37192-1.157.52637-.67221.25959-1.31794.56643-2.00657.79744-.39489.13247-.74509.34513-1.15328.45926-.21184.05923-.30688.30334-.579.28878a1.37217,1.37217,0,0,1-.729.33672c-.01491.00378-.02826.01176-.04277.017-.79673.28459-.85179.34929-1.219,1.0192a8.56066,8.56066,0,0,0-.611,1.41924,7.73708,7.73708,0,0,0-.36,1.64144c-.01829.17674-.09954.33238-.133.502-.06742.34124.07183.52061.45929.51243a6.80537,6.80537,0,0,0,2.391-.36476c.13507-.05355.24472.01217.36242.00072a10.8025,10.8025,0,0,0,2.32672-.47833c.73165-.24107,1.48294-.41208,2.22512-.61566a7.00867,7.00867,0,0,0,1.54534-.58352c.658-.36245,1.35357-.67569,2.02263-1.02429.42653-.22223.83055-.47509,1.25171-.705.264-.14408.5396-.27309.81247-.40521.73532-.356,1.46617-.71907,2.20986-1.06215.61938-.28573,1.24065-.56889,1.86786-.84316.81082-.35456,1.64978-.65413,2.472-.98552,1.17655-.47422,2.39331-.87026,3.61058-1.26145q1.56186-.50193,3.16336-.91186c.75069-.19364,1.51079-.35838,2.2583-.55619.659-.17438,1.323-.333,1.98678-.49019,1.56871-.37141,3.141-.73342,4.72062-1.06986.90821-.19343,1.82865-.35444,2.75268-.48323a9.24414,9.24414,0,0,1,2.06621-.103,1.22822,1.22822,0,0,1,.64358.20449,8.26738,8.26738,0,0,0,.83281.514.48656.48656,0,0,1,.27263.39735,3.91225,3.91225,0,0,0,.08819.99324c.03625.09969-.06456.17239-.1425.23852-.39878.33837-.80007.67462-1.19741,1.01419-.08808.07526-.16371.16091-.24507.24177l-.01448.01455-.08122.06787-.01231.00924c-.11325.08274-.10517.25412-.295.28384a.2337.2337,0,0,0-.11531.06675c-.19112.18819-.3786.379-.56727.569a2.42424,2.42424,0,0,0,.78431-.21879c.6816-.20111,1.35294-.42712,2.03412-.6293a8.02457,8.02457,0,0,1,2.38742-.35936.74783.74783,0,0,1,.316.03247,5.485,5.485,0,0,0,1.24985.32809,1.4083,1.4083,0,0,1,.92082.64155.81055.81055,0,0,1,.209.6025.14656.14656,0,0,0,.01505.11723c.24581.27925.07543.55322-.01093.82651a2.68111,2.68111,0,0,0-.19245.61556.36989.36989,0,0,1-.08336.18191c-.07978.10574-.243.17391-.15644.34563.01722.03418-.10917.118-.16562.18135-.127.14258-.34315.24091-.307.46619.0059.03684-.06718.08533-.10875.12466q-.79932.75632-1.60084,1.511a12.4573,12.4573,0,0,1-1.1953.8435c-.166.12174-.34414.23152-.51579.34776-.41912.28386-.96828.38389-1.37.69333a.208.208,0,0,1-.1307.03656,1.19346,1.19346,0,0,0-.8068.27588,1.62031,1.62031,0,0,1-.8534.18236,3.76209,3.76209,0,0,0-.981.20606,1.53171,1.53171,0,0,1-.97792.1506.37231.37231,0,0,0-.22531.03956,7.07208,7.07208,0,0,1-1.67648.263c-.13681.02552-.27588.04029-.4122.07537a.87231.87231,0,0,1-.3676.04311,2.77469,2.77469,0,0,0-1.19754.12963.98955.98955,0,0,1-.54551.04027,1.01868,1.01868,0,0,0-.5393.08767c-.163.04831-.32307.10387-.48443.15622-.04383.01423-.1001.03814-.123-.008-.01122-.02257.025-.06967.05223-.09678a.37.37,0,0,0,.08094-.26548c.07565-.00618.15606-.0042.19116-.07985a.72658.72658,0,0,0,.663-.24025.77817.77817,0,0,0,.75751-.31983.16955.16955,0,0,0,.04213-.01243c.00708-.0043.007-.01705.01009-.026l-.048.04195a1.32628,1.32628,0,0,0-.75673.321,1.32667,1.32667,0,0,0-.66275.24064c-.0768.00426-.15488.00632-.19091.0801-.215.03665-.431.07-.645.11071a3.9079,3.9079,0,0,1-1.115.12661,1.15532,1.15532,0,0,0-.82335.23017.58433.58433,0,0,1-.4049.176c-.1398-.00834-.21727.09743-.30587.17068a5.6075,5.6075,0,0,0-.4281.37352c-.10891.1107-.26495-.10075-.3779.06825a4.22394,4.22394,0,0,1-.32246.34085,2.07079,2.07079,0,0,1-.32943.28653c-.17988.13488-.30064.34632-.61274.31687-.06352-.006-.14521.09273-.21185.14884q-.71688.60372-1.431,1.20968a2.37572,2.37572,0,0,1-.27422.22032c-.13955.0864-.27765.15411-.3208.32247-.02336.09116-.14544.1704-.23732.24184a14.58718,14.58718,0,0,0-2.31864,2.39826,1.82113,1.82113,0,0,1-.717.6188.47213.47213,0,0,0-.20122.15973q-.81666,1.0242-1.64276,2.043a.71918.71918,0,0,1-.15291.15139c-.08941.05982-.17275.09393-.1374-.06568.01972-.08905-.04834-.123-.139-.06936a.46652.46652,0,0,0-.11717.12217q-.42995.54572-.85564,1.0938c-.02565.0332-.04218.08652-.08976.07762-.28337-.05309-.23742.14179-.28724.265l.00486-.00415c-.113.04287-.16964.09457-.12188.21648.03357.08573.00543.09175-.20763.14865a.198.198,0,0,0-.10381.06312c-.13667.1942-.27477.38811-.39894.5881-.61412.98927-1.23354,1.97634-1.83139,2.97263-.28371.47279-.52671.96323-.782,1.448a3.437,3.437,0,0,1-.6145.93.59476.59476,0,0,0-.11991.21287c-.08007.18094-.092.18657-.3256.06648a.16083.16083,0,0,0-.20133.02641.25122.25122,0,0,1-.336-.00221c-.142-.117-.34929-.112-.50878-.2002-.36394-.20126-.42223-.37661-.19627-.69444a5.22279,5.22279,0,0,0,.3065-.536c.29845-.54446.69421-1.03872,1.047-1.555.45627-.66776,1.049-1.25736,1.53136-1.90965.46616-.63041.9134-1.27082,1.37072-1.90592.7499-1.04141,1.53963-2.05991,2.3557-3.06591.47908-.59056,1.0374-1.132,1.48572-1.7348.48514-.65226,1.0753-1.23341,1.59208-1.86111.24234-.29436.55558-.53168.78705-.83247a5.83425,5.83425,0,0,1,.83823-.804c.23451-.20218.44122-.439.662-.65978q.73017-.7305,1.50187-1.42842c.53309-.48293,1.10717-.92865,1.65938-1.39392,1.0223-.86136,2.09924-1.67248,3.17858-2.48227a5.67717,5.67717,0,0,0,.8184-.76865c.35405-.39805.81468-.7048,1.19931-1.07472a.48564.48564,0,0,1,.24166-.11724.89809.89809,0,0,0,.70481-.57768.19938.19938,0,0,1,.10308-.12415,4.98945,4.98945,0,0,0,1.22583-1.02592,12.90692,12.90692,0,0,1,.99878-.93321,5.21049,5.21049,0,0,0,.88924-.85952,1.25132,1.25132,0,0,1,.527-.44612c.38645-.13808.44554-.46313.66229-.69542.01712-.01833.03-.0652.01937-.07261-.34553-.24057.02707-.33763.14936-.44537.29458-.2595.54484-.54812.82061-.81942.03988-.03924.10051-.07019.04967-.12872a.17008.17008,0,0,0-.17444-.03271c-.53855.15166-1.11445.13951-1.65628.27431-.01506.00374-.03122.01626-.04375.01373-.46693-.0944-.8529.16515-1.29044.21531a13.09525,13.09525,0,0,0-1.36645.29292c-.43951.09879-.87282.22637-1.31891.29326-.7414.11118-1.45188.32036-2.18836.45141a29.11925,29.11925,0,0,0-3.00358.64937c-.60426.17492-1.22958.30709-1.83676.48045-.87348.24941-1.73976.51689-2.6091.77665l-.00018-.08446a.19139.19139,0,0,0,.04035-.01161c.007-.00375.0086-.01462.01263-.02229l-.04771.03833-.066.03861.06637.03718c-.31915.16787-.68453.25653-1.00847.41151-.25327.12116-.5819-.0873-.80716.19009-.159.19582-.49273.21583-.74034.325-.71095.31352-1.45972.55641-2.174.86487-.60029.25923-1.18746.53807-1.78689.79758a1.68051,1.68051,0,0,1-.514.18247.747.747,0,0,0-.40791.16034,8.43605,8.43605,0,0,1-1.24109.69711c-.11017.0747-.23031.13881-.345.20876-.22887.13953-.41111.38767-.77028.2189-.03478-.01633-.129.05573-.19445.08854-.51322.25752-1.03029.50985-1.53642.777a1.74708,1.74708,0,0,1-.42663.14991.89439.89439,0,0,0-.49851.20974.22128.22128,0,0,1-.11207.071,10.21328,10.21328,0,0,0-1.211.51547,4.6739,4.6739,0,0,0-.92779.45957,1.31536,1.31536,0,0,1-.45657.18754,1.53859,1.53859,0,0,0-.51335.18823,8.49651,8.49651,0,0,1-1.24118.48529.25184.25184,0,0,1-.13468.02756c-.35069-.09979-.66494.10179-1.00708.08168a.65361.65361,0,0,0-.467.16492.92558.92558,0,0,1-.351.19579,10.637,10.637,0,0,1-2.5853.526.35194.35194,0,0,0-.094.00527,4.2676,4.2676,0,0,1-2.21046-.06989,1.67474,1.67474,0,0,1-.514-.18657,7.882,7.882,0,0,1-1.3594-.974.77918.77918,0,0,1-.32747-.64011c.01326-.17857-.09344-.33046-.09606-.50824a7.73392,7.73392,0,0,1,.14045-1.14713c.01245-.09237.04382-.18317.05233-.27562.01582-.17209-.009-.17885-.19449-.13617-.60849.14-1.15354.42157-1.76049.56176a6.138,6.138,0,0,0-1.25978.42351.27489.27489,0,0,1-.12979.04014,3.39345,3.39345,0,0,0-1.318.28156,6.83557,6.83557,0,0,1-.94232.23013c-.17558.02263-.43167.00137-.47883.24259-.0044.02249-.08873.05953-.11295.04962-.31513-.129-.58429.0449-.85443.11137a7.16447,7.16447,0,0,0-1.37094.40351.27365.27365,0,0,1-.22.01025c-.15711-.0487-.27892-.06365-.37761.11345-.05014.09-.26938.06393-.41231.06077-.07563-.00167-.18225-.0486-.21861.00787-.15037.2336-.43265.18087-.66082.22843-.50867.10606-1.02437.18783-1.53649.28227-.18351.03384-.368.06754-.5468.11536a3.9971,3.9971,0,0,1-1.51575.06286c-.32249-.03771-.63936-.06755-.96209-.13755a3.33668,3.33668,0,0,1-1.15768-.58185,1.88761,1.88761,0,0,1-.72343-.665,1.15157,1.15157,0,0,1-.16263-.75643,2.46716,2.46716,0,0,1,.18284-.6639.09734.09734,0,0,0-.02924-.13453l-.01065-.00594a.19316.19316,0,0,0-.17637.00239,25.64228,25.64228,0,0,1-3.555,1.01238c-.58986.13386-1.15854.3345-1.73684.50483-.77.22679-1.53884.45646-2.31111.67763a.952.952,0,0,1-.45592.08108l.005.005.08819-.16554c.03468-.02205.12272.033.10718-.04859-.00219-.01152-.08254.0113-.10208.0535a2.427,2.427,0,0,0-.85659.24l.00575-.00434c-.0753.01128-.157.01195-.19563.0842l.00376-.0032c-.13175.01487-.28292-.03353-.38309.08417l.00472-.00477c-.0786.0044-.158.005-.23517.01625-.0166.00242-.11986-.0226-.05524.05037.01455.01643.0603.01078.08847.02139.05018.01891.06684.04643.00213.06644a.98334.98334,0,0,1-.26853.06976c-.46881.0032-.935.07133-1.40488.03912a.83081.83081,0,0,0-.14042-.0131,1.95635,1.95635,0,0,1-1.30006-.46464.747.747,0,0,1-.37056-.81356,1.54183,1.54183,0,0,0,.06315-.27279,1.20567,1.20567,0,0,1,.49525-.93889L45.64485,23c.034.06109.06789.063.10164-.00015l-.0056.00432c.12975-.05208.07188-.16365.11034-.24423.06868-.14389.10812-.316.35075-.32974l.03012.02108c.02948.04984.05182.03087.07237-.00537l.01393-.01029c.18-.1383.43657-.19962.558-.39688a.1938.1938,0,0,0,.03746-.01676c.0063-.00456.00665-.015.00968-.02281l-.04126.04422a.21163.21163,0,0,1-.0472.00036c-.16746-.03684-.26683.22194-.34026.13387-.10916-.13092.13655-.20146.23261-.27647.56622-.44219,1.1481-.87022,1.73267-1.29519a1.15911,1.15911,0,0,0,.2354-.19062c.06815-.08427.28162-.11585.22724-.22375-.06092-.12086-.21844.01-.33731.00369A1.76571,1.76571,0,0,1,48.004,20.096a1.66124,1.66124,0,0,0-1.09-.05578c-.74069.224-1.454.50051-2.16265.78529-.92369.37118-1.82449.78129-2.73538,1.174-1.2164.52448-2.43812,1.04051-3.62453,1.61147-.43732.21045-.87211.42473-1.3143.62827-.10424.048-.234.09266-.19433.23722.00678.02472-.04106.08308-.07307.08891-.314.05719-.50692.31223-.82608.35762l.00516.00494c.01588-.03733.04925-.07677.04341-.11149-.008-.04773-.0649-.03816-.10646-.02547-.02924.00893-.05429.03463-.08295.03683-.19725.0152-.1355.21242-.2763.27376-.13584.05919-.29616-.03973-.432.08524-.0905.08323-.24608.099-.2267.26549.00777.06675-.13052.10386-.21388.14112q-.95958.429-1.91967.85721a3.72857,3.72857,0,0,0-1.04694.59867,2.239,2.239,0,0,1-.61018.37175,14.23942,14.23942,0,0,1-2.48207.86471c-.31638.07681-.30121.07408-.249.3789a2.2403,2.2403,0,0,1-.29424,1.512c-.30326.53642-.62955,1.06458-.90419,1.6113a18.40121,18.40121,0,0,1-1.36041,2.40078c-.52855.74808-1.02575,1.514-1.63322,2.22823-.71722.84328-1.54389,1.607-2.29149,2.42675-.55372.60717-1.10313,1.22338-1.71422,1.79188-.24108.22428-.45668.46843-.71044.68a1.40023,1.40023,0,0,1-1.37329.29012c-.04435-.01355-.09209-.05053-.12971-.04357a2.22977,2.22977,0,0,1-.93331-.17254c-.57829-.12564-1.03428-.4504-1.58933-.59747a.29434.29434,0,0,1-.2073-.152,3.169,3.169,0,0,1-.39094-1.21276.504.504,0,0,1,.03926-.19376c.01282-.03107.065-.05053.09937-.07523a.307.307,0,0,1,.04953.09816c.0147.17239.01849.3455.03657.51757a.12765.12765,0,0,0,.0872.08152c.06351.0122.05509-.04352.05831-.07677a.73148.73148,0,0,0,.00346-.15984,6.38792,6.38792,0,0,1,.0682-1.37107,8.65554,8.65554,0,0,1,.45557-1.77761A15.193,15.193,0,0,1,17.271,33.2656,14.41918,14.41918,0,0,1,18.395,31.60926a11.2693,11.2693,0,0,1,1.27324-1.51959.73846.73846,0,0,0,.11551-.16661,5.73339,5.73339,0,0,1,.73235-.87532c.30416-.29852.54756-.64078.82658-.95906q.89555-1.02154,1.87949-1.98037c.47686-.46552.939-.93691,1.37582-1.4302.24148-.27271.509-.53532.77684-.79381l.00151-.00131a2.05889,2.05889,0,0,0,.502-.46895c.56284-.612,1.19076-1.1767,1.78653-1.76474.62175-.61367,1.25157-1.22093,1.93633-1.78534a1.152,1.152,0,0,0,.31829-.38942.20918.20918,0,0,0,.0349-.01541c.00628-.00421.00816-.01311.012-.0199l-.0413.03989c-.32034.08144-.63928.16715-.96146.243-.26173.0616-.47043.215-.73545.27765-.25342.05993-.48367.18875-.73635.25264-.12469.03152-.26659.17995-.41415.02334a.17275.17275,0,0,0,.03817-.012c.00664-.00392.00765-.01467.01118-.02235ZM36.935,14.751l-.09476.08008a.11883.11883,0,0,0-.09441.08038.19219.19219,0,0,0-.03758.01253c-.0066.00379-.00834.01364-.01226.02077l.04406-.03811c.0478-.01306.085-.035.09457-.08032a.11578.11578,0,0,0,.09521-.07983.21635.21635,0,0,0,.03632-.0124c.00679-.00371.0098-.01237.0145-.01881Zm52.38692.08011a.223.223,0,0,0-.03444.01237c-.0065.00358-.00966.01153-.01432.01751l.04325-.03435a.22442.22442,0,0,0,.03684-.015c.00655-.00406.00874-.01314.01288-.02Zm1.326-.88146-.0947.08c-.04829.01261-.085.035-.09443.0803a.579.579,0,0,0-.12815.02347c-.04676.02008-.12786.05378-.09318.09737.043.054.1016-.00243.14026-.035a.61935.61935,0,0,0,.07534-.09054.11157.11157,0,0,0,.09446-.08042q.09543-.08017.1903-.161c.12258-.00233.19168-.05015.189-.159.02564-.02472.06309-.04637.07352-.075.00994-.02734-.02449-.04218-.035-.02307a.50709.50709,0,0,0-.03258.10266.3.3,0,0,0-.18908.15924Zm-12.40935,4.087a.107.107,0,0,0-.09526.07978.11625.11625,0,0,0-.09465.08015.10419.10419,0,0,0-.09468.08022l-.09473.08047c-.04685.02415-.11093.0668-.05165.09764.0362.01884.03546-.06371.046-.10249a.11406.11406,0,0,0,.09489-.08026.09668.09668,0,0,0,.0951-.07976.11074.11074,0,0,0,.09431-.08049.10874.10874,0,0,0,.095-.07986.16487.16487,0,0,0,.04145-.01555c.00672-.00487.00514-.01791.00727-.02729Zm37.89273-2.484a.11764.11764,0,0,0-.09493.08007.20712.20712,0,0,0-.03355.01343c-.006.00365-.00821.01179-.01212.01792l.03985-.0363a.11251.11251,0,0,0,.09481-.08.17027.17027,0,0,0,.03876-.0151c.0065-.00459.00611-.01617.00879-.02461Zm-28.89326.4007a.19119.19119,0,0,0-.037.01045c-.00681.00346-.0095.01275-.014.01942l.04518-.03463.09575-.08108a1.14351,1.14351,0,0,0,.17376-.04291c.03325-.01366.0858-.04786.04749-.08423-.02426-.023-.08268-.0203-.1258-.02912a.48417.48417,0,0,1,.23732-.18431,18.20033,18.20033,0,0,0,1.87712-1.06948,6.47231,6.47231,0,0,0,1.03379-.81156c.102-.104.06746-.15626-.10111-.17035a4.149,4.149,0,0,0-.88926.06387,11.57231,11.57231,0,0,0-2.16763.48365,23.08154,23.08154,0,0,0-3.363,1.60178c-.05506.0287-.12681.06127-.10207.116.073.16135-.09.21183-.18091.28863a7.78748,7.78748,0,0,1-1.02758.6991,4.1675,4.1675,0,0,0-.93248.66871,7.67576,7.67576,0,0,1-.56825.53355c-.16407.14432-.33617.28211-.5013.42559-.03838.03334-.11782.07043-.06621.12415.04511.04695.11407-.016.17167-.01135.2099.01689.33391-.1258.4974-.19152,1.12171-.45088,2.23544-.916,3.35649-1.368a5.35447,5.35447,0,0,1,1.02536-.40031c0,.04633-.08481.08251-.02544.13293a.09389.09389,0,0,0,.07489-.01625c.04737-.05673.01066-.09159-.05473-.11329a11.6599,11.6599,0,0,1,1.57135-.7821.511.511,0,0,1,.13806-.02192l-.0933.16348Zm-39.4085-8.3342a.10741.10741,0,0,0-.095.07966c-.08007-.00185-.15366.00733-.1901.07982a.6962.6962,0,0,0-.12124.02746c-.021.0087-.00509.03375.03192.03349a.08173.08173,0,0,0,.08434-.06574c.07693-.00307.1555-.00331.19-.07918a.11865.11865,0,0,0,.09414-.08037A.18587.18587,0,0,0,47.86,7.6005c.00639-.00405.0077-.01382.01129-.021Zm-1.80023,15.1449c-.021.0125-.09433-.00767-.0433.0497l.03854-.05362a.15.15,0,0,0,.03937-.01365c.00643-.00452.005-.01708.007-.026Zm1.23183.56152-.09519.07976a.18745.18745,0,0,0-.032.0163c-.00567.00437-.00665.01311-.00973.01989l.03693-.04026.09421-.08044a.18183.18183,0,0,0,.039-.01522c.00655-.00449.00665-.01574.00966-.02395ZM120.394,20.68108a.11022.11022,0,0,0-.09494.07963.1538.1538,0,0,0-.04038.01326c-.00657.00449-.00519.01735-.00738.02645l.04284-.04384a.10017.10017,0,0,0,.09411-.08035.11042.11042,0,0,0,.09569-.08091.10189.10189,0,0,0,.09511-.07954.24673.24673,0,0,0,.26427-.16518c.00228-.0073-.01864-.02875-.02485-.02766a.29165.29165,0,0,0-.23469.19677.11.11,0,0,0-.094.08036ZM21.96743,28.53383a.16036.16036,0,0,0-.03786.0128c-.00636.0041-.00625.01536-.009.0234l.0419-.04042a.142.142,0,0,0,.04257-.01169c.007-.00471.00493-.01911.00693-.02916Zm8.23847-8.57777a.1009.1009,0,0,0,.09354-.08151A.2813.2813,0,0,0,30.488,19.715l.09585-.08113.0948-.07986a.497.497,0,0,0,.283-.24.15232.15232,0,0,0,.036-.01381c.00612-.00436.00572-.01528.00825-.02325l-.03861.04174c-.18143.0063-.278.08444-.28348.23965a.10223.10223,0,0,0-.09429.08039.10407.10407,0,0,0-.09561.08089c-.13819-.01089-.19214.05-.18937.15911q-.09738.07756-.19027.1605c-.18016-.00155-.27323.11642-.38518.20493-.76474.60465-1.37958,1.32531-2.10981,1.95706a1.00508,1.00508,0,0,0-.15814.24088c-.1619.06457-.28384.15432-.28284.32146a.16071.16071,0,0,0-.04161.01142c-.00715.00424-.00724.017-.0105.02592l.04728-.04144c.158-.06628.27649-.1578.28476-.31958a.34169.34169,0,0,0,.2675-.13508c.65664-.63271,1.31744-1.26232,1.97517-1.89423.133-.12774.32166-.2119.40882-.37513A.09731.09731,0,0,0,30.2059,19.95606Zm46.60663-.24231a.16268.16268,0,0,0,.03672-.01477c.00621-.00445.00595-.01536.00858-.02338l-.03945.04306a.15219.15219,0,0,0-.03739.01389c-.00642.00457-.00591.0161-.0085.02451Zm.37884-.56094c.047-.02709.11547-.04858.039-.10768l-.03319.11254a.15639.15639,0,0,0-.03759.01376c-.00641.00445-.006.01588-.00872.02417ZM88.46521,15.307c.07387-.00765.14928-.01271.18776-.07989l.09582-.08091a.28538.28538,0,0,0,.28389-.15926.18532.18532,0,0,0,.04042-.01173c.007-.00382.00821-.015.012-.02286l-.04761.03865a.26691.26691,0,0,0-.28321.15977.1186.1186,0,0,0-.09543.08116c-.07519.0059-.15768-.00053-.18873.07994a.60259.60259,0,0,0-.12341.02012c-.025.00945-.01161.0375.02521.038A.09294.09294,0,0,0,88.46521,15.307ZM22.24746,22.1181c.03284-.02453.12193.02776.1054-.0517-.002-.00976-.08355.01242-.09985.05708a.71411.71411,0,0,0-.12155.022c-.02452.00876-.00877.03983.02424.03274A.29564.29564,0,0,0,22.24746,22.1181Zm65.55421-6.49073a.20152.20152,0,0,0,.18846-.0795.24018.24018,0,0,0,.036-.016c.00646-.0042.00882-.01291.013-.01959l-.04345.04007c-.07634.00365-.16013-.00542-.189.07921a.16876.16876,0,0,0-.03969.01184c-.00675.004-.00721.01557-.0105.02375ZM60.42886,23.16529a.40509.40509,0,0,0-.0754.09027.06842.06842,0,0,0,.02468.09356l.00694.00353a.39392.39392,0,0,0,.02837-.07382c.00675-.039.00678-.07884.00965-.11831a.14719.14719,0,0,0,.03624-.01355c.00616-.0044.00555-.01559.008-.02373Zm-33.63444-.00542a.26644.26644,0,0,0,.075-.038.44526.44526,0,0,0,.09079-.123c.0102-.02411-.03208-.04442-.05138-.0266a.61284.61284,0,0,0-.09876.11849c-.013.02018-.00726.04895-.01.07383a.10832.10832,0,0,0-.09606.08032c-.19759-.00724-.21832.13518-.28366.23986a.09747.09747,0,0,0-.09615.07964c-.20406.12756-.42233.24509-.47339.48051-.12314.10969-.36245.12171-.378.3218a.3739.3739,0,0,0-.21011.19788c-.05518.08941-.18269.13416-.20425.24281.18592.00332.24112-.12538.32206-.22813a.29865.29865,0,0,0,.0868-.21728.38174.38174,0,0,0,.38047-.31945.87991.87991,0,0,0,.47345-.48067.09673.09673,0,0,0,.09431-.08121c.18209-.0058.223-.13118.28366-.23975ZM42.14511,11.38481a.45082.45082,0,0,0-.37737.24075.8023.8023,0,0,0-.12221.02458c-.02407.00864-.00826.03834.025.0309a.29736.29736,0,0,0,.09159-.06074.47684.47684,0,0,0,.37813-.24.28666.28666,0,0,0,.28523-.16024.46937.46937,0,0,0,.37867-.23964c.02563-.01063.09555.00449.04226-.052l-.03856.05516a.42063.42063,0,0,0-.37729.24126A.273.273,0,0,0,42.14511,11.38481Zm44.61865,1.1977a.09447.09447,0,0,0,.01259.03119c.0046.00526.01828.00483.02789.007l-.04488-.03437c.0213-.06088.1091-.11335.07114-.17754-.04737-.0801-.12848-.03536-.19456-.00555a1.18326,1.18326,0,0,0-.47919.31185c.21331.04758.37829-.07163.56456-.11727A.409.409,0,0,0,86.76376,12.58251ZM24.80968,25.08861a1.00362,1.00362,0,0,0-.40751.32433c-.21667.20917-.415.43222-.61449.65369-.06892.07654-.20019.12776-.16657.25371a1.11775,1.11775,0,0,0,.30495-.16313c.29722-.32485.57643-.66153.85985-.99533.01658-.01954.01246-.05166.018-.07792a.18551.18551,0,0,0,.03484-.01646c.006-.0045.00651-.01423.00949-.02162Zm89.04371-.40576a5.024,5.024,0,0,0,.56993-.173,26.4201,26.4201,0,0,0,2.54023-1.26161.95743.95743,0,0,0,.39635-.32649.87455.87455,0,0,0,.48262-.23208,15.6483,15.6483,0,0,0,1.97067-1.48342c.08741-.07752.30336-.16755.21561-.24822-.0918-.08439-.22554.09344-.33675.15156a1.22891,1.22891,0,0,0-.46682.36762.43078.43078,0,0,1-.27681.23293.67456.67456,0,0,0-.39822.26588,1.59885,1.59885,0,0,1-.329.27581,3.044,3.044,0,0,0-.86064.67055.60719.60719,0,0,0-.38334.13319,10.67568,10.67568,0,0,1-1.74038.92146c-.431.2119-.87021.40905-1.30536.61342-.03493.01641-.04939.064-.07335.09717-.53489-.06019-.88659.28026-1.323.43523-.03677.01306-.07383.06191-.03927.09308a.15355.15355,0,0,0,.1258.01745A12.569,12.569,0,0,0,113.85339,24.68285ZM16.6629,35.42556a.8104.8104,0,0,0-.3588.53509c-.18665.56181-.39717,1.11816-.53932,1.6913a5.02888,5.02888,0,0,0-.13938,1.42755c.00172.04222-.02435.09648.04463.12319a.7699.7699,0,0,0,.02241-.116,4.11729,4.11729,0,0,1,.02771-.6393,14.56837,14.56837,0,0,1,.66311-2.18767,1.98463,1.98463,0,0,0,.27407-.83826c.08967-.0206.10864-.09256.1396-.14933A20.63671,20.63671,0,0,1,17.83805,33.409a.62178.62178,0,0,0,.05115-.23187c.04835-.032.11471-.05541.1424-.09718A30.18127,30.18127,0,0,1,20.35492,30.03c.36176-.4188.71347-.844,1.08474-1.25667.52214-.58033,1.05932-1.151,1.58713-1.72764.07477-.0817.22871-.19854.143-.26592-.08087-.06359-.14665.107-.22592.16651a4.19146,4.19146,0,0,0-.66611.66643c-.32934.38771-.67054.76844-1.01556,1.14634-.61121.66946-1.21417,1.34426-1.75733,2.05466-.4944.64663-.96931,1.30393-1.45236,1.95676a.59986.59986,0,0,0-.15838.41024c-.06719.01861-.08553.07133-.11791.11616a18.4557,18.4557,0,0,0-.95377,1.63526A.88631.88631,0,0,0,16.6629,35.42556Zm1.51,2.79933c.21969.13125.11755.31631.08386.4708a3.87311,3.87311,0,0,0-.07284.98855c.002.05.00213.1157.08428.11947a.17243.17243,0,0,0,.11941-.04923c.305-.36606.786-.612.994-1.04541.02773-.05782.10764-.09642.15684-.14836.42216-.44576.86765-.87763,1.25753-1.34282.472-.56323.90088-1.15263,1.3405-1.735a14.77534,14.77534,0,0,0,.98507-1.40284q.581-.99211,1.14057-1.99323c.37622-.67386.76625-1.3437,1.09818-2.03323a1.34967,1.34967,0,0,0,.11552-1.39346c-.09276-.14771-.45442-.44493-.58913-.38794-.24117.102-.56721.16341-.67877.37765a4.1245,4.1245,0,0,1-.73966.86943c-.45084.476-.871.97077-1.304,1.4575A17.56685,17.56685,0,0,0,20.802,32.693c-.55252.8038-1.05728,1.626-1.524,2.46806a13.12457,13.12457,0,0,0-.86815,2.05762,2.19124,2.19124,0,0,0-.23118,1.01056.44334.44334,0,0,0-.07757.0906.06552.06552,0,0,0,.0189.09071l.01134.00594a.50821.50821,0,0,0,.02657-.07407c.0077-.03881.01024-.07832.015-.11753Zm90.22943-12.26406a.24228.24228,0,0,0,.04651-.00488c.6197-.19015,1.25248-.35528,1.85428-.57983.443-.16528.89-.328,1.31993-.52617a3.72508,3.72508,0,0,1,1.15123-.3254.9635.9635,0,0,0,.39728-.11135c.5511-.33074,1.22586-.46968,1.76422-.81911a.09985.09985,0,0,1,.08269-.00044c.04328.03867-.00924.0651-.03027.09494-.016.02269-.052.05565-.04442.06627.02969.04152.08075.03119.12215.011.14948-.07289.29479-.1521.44609-.2221a14.08748,14.08748,0,0,0,2.00039-1.12705,24.60039,24.60039,0,0,0,2.70694-2.0919c.55522-.50286,1.088-1.021,1.6066-1.5498a1.62133,1.62133,0,0,0,.24611-.42784.106.106,0,0,0-.02765-.10721.113.113,0,0,0-.157.03l-.00045.00066c-.10617.11224-.16185.26518-.34713.31156a.18666.18666,0,0,1-.13076-.01306c-.04158-.03128.00708-.06587.03257-.09477.07983-.09054.01391-.1295-.07607-.10363a14.96658,14.96658,0,0,0-2.28872.69143c-.75706.35972-1.56146.62858-2.32734.96985-.93152.41508-1.83371.86918-2.739,1.31972a5.07148,5.07148,0,0,0-1.18081.72709q-1.26615,1.15438-2.52716,2.3128c-.03152.02891-.04507.07239-.078.09955a4.62033,4.62033,0,0,1-1.01107.76723,5.33443,5.33443,0,0,0-.86626.6071c-.019.01381-.03539.05333-.0257.06632.01281.01721.05253.0201.08076.029ZM70.55615,16.1272a.35177.35177,0,0,0-.45447-.33373c-.127.02292.14258.17709-.08506.15753a2.52073,2.52073,0,0,0-.37724.00852.30106.30106,0,0,0-.13052.04179,1.31514,1.31514,0,0,1-.57783.15471,1.14774,1.14774,0,0,0-.766.33472.81972.81972,0,0,1-.31392.17023,10.70589,10.70589,0,0,0-2.03753,1.05015c-1.14476.67573-2.174,1.47856-3.27547,2.20295a.39077.39077,0,0,0-.10446.12668.08812.08812,0,0,0-.004.07772c.02331.0472.07647.04229.11525.02026a5.00748,5.00748,0,0,1,.80534-.30973,12.79672,12.79672,0,0,0,2.30157-1.07007c.549-.33085,1.13641-.60961,1.709-.90047.51757-.26292,1.05785-.51273,1.61428-.72984a7.11255,7.11255,0,0,0,1.38791-.748C70.463,16.31309,70.55812,16.24251,70.55615,16.1272ZM17.98123,39.81137h-.01708c0-.06638.00091-.13278-.00084-.19912-.00032-.01215-.0115-.02409-.01767-.03613-.01357.01377-.03865.02738-.03889.04132-.00212.11947-.00036.239.00226.35848.00026.01179.01405.02336.02156.035.01689-.01364.04664-.02623.04833-.04111A1.39822,1.39822,0,0,0,17.98123,39.81137Zm98.72635-24.68719c.07034-.0272.1396-.06278.1505-.13064.00691-.04292-.03913-.05854-.08647-.03254-.06063.0333-.14437.05271-.13568.13294C116.6372,15.10567,116.68218,15.114,116.70758,15.12418Zm-81.20226.72629a.15311.15311,0,0,0,.13634-.08183c.0018-.00252-.03931-.0361-.0469-.03281a.60716.60716,0,0,0-.10646.0622C35.4582,15.81914,35.46571,15.8385,35.50532,15.85047Zm76.35275,9.5412a.15052.15052,0,0,0,.14057-.0783c.00576-.00881-.01978-.0467-.03324-.04766a.1399.1399,0,0,0-.14048.07535C111.81932,25.35163,111.84608,25.37448,111.85807,25.39167Zm-63.595-.03885c-.06162-.00371-.10431-.008-.147-.00781a.06723.06723,0,0,0-.03638.01884c.02.04177.0654.03913.10518.03412C48.20636,25.39527,48.22488,25.37577,48.26307,25.35282ZM50.42069,6.299c-.00327-.00835-.00394-.02154-.01037-.024a.06451.06451,0,0,0-.04068-.003c-.036.01415-.03134.02969.01236.03707A.10555.10555,0,0,0,50.42069,6.299ZM78.454,17.10986l.02072.01289.00343-.02091Zm87.69531-4.0431c-.02875-.16413.21745-.23836.18455-.40385a.10124.10124,0,0,0,.09537-.0806c.09331-.02747.09434-.09342.09338-.1602a.1057.1057,0,0,0,.0952-.07972.15344.15344,0,0,0,.03757-.01414c.00633-.00453.00562-.01611.008-.02453l-.04018.04314a.11282.11282,0,0,0-.09508.08.146.146,0,0,0-.09393.15967.10248.10248,0,0,0-.09551.08051,5.12821,5.12821,0,0,0-.95176.96191l.00573-.0054a.12943.12943,0,0,0-.10141.08593l.00661-.00572a.12233.12233,0,0,0-.10145.08584l.00589-.00507a13.059,13.059,0,0,0-1.99521,1.68751l.00625-.00532a1.07633,1.07633,0,0,0-.30357.18278c-.53268.42835-1.0734.84955-1.61037,1.2741a.43276.43276,0,0,0-.08706.09243c-.04482.06511-.05968.11772.06544.13224a18.71986,18.71986,0,0,0,2.49767.08447c.20343-.00362.414.03942.60446.03384a1.99113,1.99113,0,0,0,.93306-.06815.91294.91294,0,0,1,.60118-.026,2.26374,2.26374,0,0,0,.87855-.00856c.33358-.05158.68227-.02989,1.02353-.05023.62592-.0373,1.2506-.09362,1.87506-.14032a15.59848,15.59848,0,0,0,1.86-.204,3.21641,3.21641,0,0,1,.56551-.025,2.35427,2.35427,0,0,0,1.41077-.33469c.15732-.11289.395-.14492.53677-.2976.06615-.07124.15357-.06167.25583-.03942.34624.07532.69907.12917,1.04453.20669.251.05632.2911.195.132.38-.02767.03216-.04245.077-.07794.09889a4.85958,4.85958,0,0,0-1.29012,1.40423c-.10731.14357-.39155.30615-.23277.46449.12576.12544.35995-.07534.5453-.13268a10.92108,10.92108,0,0,1,1.54282-.31937c.48717-.07642.96281.07334,1.44661-.0259a.74406.74406,0,0,1,.48776.11117.47371.47371,0,0,0,.30734.08609.47922.47922,0,0,1,.53505.28293.85363.85363,0,0,0,.17243.23572.47431.47431,0,0,1,.074.63158,5.51561,5.51561,0,0,1-.64886,1.01648c-.2607.29614-.43294.64617-.72156.93223-.33576.33279-.65913.6745-.989,1.01154a.09627.09627,0,0,1-.11887.02754c-.05159-.02672-.03318-.06526-.02192-.10529.04407-.15657.26309-.23908.24693-.42033a.16.16,0,0,0,.03841-.01244c.00673-.00427.00709-.0157.01031-.02392l-.04339.04087a2.10493,2.10493,0,0,0-.73824.53394c-.361.33639-.78267.61-1.15988.92653a4.27371,4.27371,0,0,1-1.27217.80473c-.21146.07784-.33748.274-.56108.3588a2.89015,2.89015,0,0,1-1.17.37522,1.44636,1.44636,0,0,0-.43971.13261,1.78235,1.78235,0,0,1-.43946.13462,2.09014,2.09014,0,0,0-.84814.21367c-.06674.03266-.16327.07542-.21477.01583-.06024-.06971.04807-.11087.10021-.14568.12278-.082.25866-.1498.38465-.2286.119-.07444.37075-.10824.13828-.30439-.03116-.02628.0265-.07175.06985-.08451a4.54082,4.54082,0,0,0,1.56308-.86217,5.77934,5.77934,0,0,1,.60492-.37686c.02474-.01507.06464-.03987.08132-.0328.309.131.39227-.11972.48437-.24493.14852-.20188.38127-.352.48075-.5799l-.00588.0049.19394-.00055-.005-.00418c.03344.06943.06723.06213.10125.00032l-.00445.00369c.18136-.10243.35551-.20717.39917-.40935.00973-.04513.06172-.113.10451-.1191.32884-.047.01046-.19123.06329-.27646a.10526.10526,0,0,0,.09476-.08013.10728.10728,0,0,0,.0943-.08041.10162.10162,0,0,0,.09513-.07987.104.104,0,0,0,.09441-.08022.166.166,0,0,0,.03828-.01344c.00658-.00429.00678-.01554.00983-.02367l-.04256.04172a.10631.10631,0,0,0-.095.07978.108.108,0,0,0-.09472.08022.11244.11244,0,0,0-.09484.08.11033.11033,0,0,0-.09478.08011c-.09614-.03893-.08588-.09246-.03949-.16035a8.32827,8.32827,0,0,1,.765-.80832,11.02961,11.02961,0,0,0,1.05744-1.41559c.02837-.04361.06636-.11516.04469-.14307-.04895-.063-.14441-.03668-.21817-.02212a6.195,6.195,0,0,0-1.64665.57707c-.335.17357-.6886.32074-1.01416.50516-.57082.32335-1.1282.66364-1.69472.99252a.25886.25886,0,0,0-.1407.15239c-.06728.41048-.46017.65249-.699.9725-.2006.26877-.4529.50991-.68227.7633a.28209.28209,0,0,0-.05582.06413,9.42792,9.42792,0,0,1-.90989,1.39146c-.04456.06763.0074.08972.07925.09752a.58569.58569,0,0,0,.31146-.07807,1.842,1.842,0,0,1,.21138-.08938c.176-.0538.3143-.202.53125-.15433a2.31114,2.31114,0,0,1-.53288.37716c-.1375.04934-.29448.04962-.446.0946a2.78043,2.78043,0,0,0-1.3468,1.12164c-.4971.59793-.94211,1.22668-1.43126,1.82955-.4624.56989-.93265,1.13552-1.34476,1.73227-.50721.73446-1.008,1.47265-1.48376,2.22191-.32732.51554-.70333,1.0092-.98184,1.547a6.78209,6.78209,0,0,1-.66965,1.00165,6.5506,6.5506,0,0,0-.49143.81546c-.30964.55152-.61227,1.10588-.91752,1.65918-.04755.08619-.05512.09592-.18508.01466-.06526-.04083-.07412-.00958-.09257.019-.02908.045-.08328.101-.03084.14572.19618.16734.03362.31842-.02248.47288a.07339.07339,0,0,1-.09667.03781l-.01354-.00773c-.0592-.0317.01163-.16747-.11388-.1236a.32325.32325,0,0,0-.17564.17776c-.10835.309-.35231.56677-.44917.87967a.53464.53464,0,0,1-.144.24989c-.282.2405-.36507.579-.612.84379a1.71047,1.71047,0,0,0-.3092.74376c-.09484.3526-.29734.6716-.40329,1.01918-.05544.18186-.24474.27146-.39189.38839a.15967.15967,0,0,1-.12743.01723c-.22344-.19147-.4803.03061-.72073-.046-.11434-.03643-.24381-.0204-.31026-.137a.17647.17647,0,0,0-.14618-.07259c-.34876-.04578-.4595-.16628-.34372-.40136.14561-.29566.23074-.60974.38379-.89984a9.27391,9.27391,0,0,0,.65279-1.577,1.72688,1.72688,0,0,1,.34655-.68267l-.00456-.00379c.00121.0397.00143.07945.0038.1191.00619.10383-.05083.28311.03361.293.11219.0131.11066-.15761.16259-.24808a13.60892,13.60892,0,0,0,.562-1.42376c.05393-.12345.103-.2485.16124-.37048.01525-.032.05628-.05517.08547-.0824.0132.0368.02743.07338.03938.11046a1.14077,1.14077,0,0,0,.04825.15008.0939.0939,0,0,0,.07124.04263.067.067,0,0,0,.05632-.0762l-.0032-.01273c-.027-.11476-.11327-.21958-.07886-.34465l-.00526.00395a1.00716,1.00716,0,0,0,.27-.31625c.01642-.02834-.00966-.0743-.01619-.11216-.02923.02378-.0572.04884-.088.071-.03442.02478-.08059.072-.10556.06553-.07066-.01847-.06677-.08472-.05092-.13046a5.43217,5.43217,0,0,1,.34743-.98453,8.979,8.979,0,0,0,.39281-.88857.8591.8591,0,0,1,.08012-.14407.6274.6274,0,0,1,.08327-.08253c.00884.03694.03355.07716.024.11029q-.10543.36512-.22415.72745c-.01768.05408-.03735.1063.0349.13148.05285.01842.08372-.02756.103-.06234a5.93136,5.93136,0,0,0,.57071-1.42667c.00879-.0346-.01764-.0756-.02769-.11363-.03017.02429-.05939.0495-.0907.07269-.10586.07835-.12952.21266-.26076.27356l.00476.00346c-.04634-.21163.09017-.38259.17357-.566a2.6495,2.6495,0,0,1,.49-.80008.737.737,0,0,0,.00871.07855.13565.13565,0,0,0,.107.11725c.05308.01.063-.0407.08726-.07038a3.339,3.339,0,0,0,.44681-.89946c.01733-.04175.02673-.103-.04042-.12872-.00846-.00323-.05341.05651-.07767.0891a4.63363,4.63363,0,0,1-.53728.81941,1.96192,1.96192,0,0,1,.28133-.79144c.19585-.31525.3775-.63681.56486-.95583a.59384.59384,0,0,0,.10706-.342l-.00619.00506a.56327.56327,0,0,0,.30865-.28894,8.31978,8.31978,0,0,1,.54945-.82877,8.91571,8.91571,0,0,0,.55016-.82687,1.31174,1.31174,0,0,1,.19269-.26957c.55-.61346.94555-1.31644,1.5404-1.90306a6.05115,6.05115,0,0,0,.67542-.717.21727.21727,0,0,1,.168-.059.41939.41939,0,0,0-.01241.0781c.0031.112-.26291.19725-.09913.28884.08581.048.17-.15337.2595-.238a.91246.91246,0,0,0,.13046-.20823c.02671-.02593.06572-.04871.07647-.07873.00959-.02683-.031-.04274-.04232-.02245a.404.404,0,0,0-.028.10563.67068.67068,0,0,0-.2902.08026c.032-.1784.18124-.28875.30035-.42748.5181-.60339,1.19919-1.07882,1.754-1.6521.16-.16538.29777-.38552.60383-.41035.00771.04532-.00973.10441.05576.122.01775.00476.08522-.052.07982-.0695-.01776-.05767-.08734-.04417-.14176-.04716.0716-.19379.26827-.31669.38433-.48527l-.00514.00429a.13193.13193,0,0,0,.10121-.08565l-.00469.005c.3673-.07513.54164-.3503.77506-.55551.33426-.29391.5874-.64723.89277-.96448a12.56253,12.56253,0,0,0,.98064-1.21509,7.98968,7.98968,0,0,1,.74574-.8202,1.459,1.459,0,0,0,.49749-.71036c.03135-.17143.326-.25914.22026-.48592-.01569-.03362.08732-.05818.15194-.06413a.76844.76844,0,0,0,.12862-.03365.381.381,0,0,0-.11429-.03451q-.35115.01092-.70183.03226c-.08871.00556-.14756.0402-.10463.1296.05333.111-.02676.13916-.13342.151-.45087.05013-.90286.07709-1.358.09037a11.1993,11.1993,0,0,0-1.29549.112,6.11351,6.11351,0,0,1-.70375.04017,1.16967,1.16967,0,0,0-.459.06976,4.54711,4.54711,0,0,1-1.02493.16879,14.83,14.83,0,0,1-2.20216.1287c-.81374.04691-1.63848.07641-2.46128.04228-.68855-.02857-1.38-.005-2.07-.01311a.79491.79491,0,0,0-.51685.14773c-.57877.42605-1.17131.83868-1.75584,1.25916-.66973.48176-1.35093.95092-2.06025,1.39086-.59509.36911-1.17758.7529-1.77708,1.11673-.509.30889-1.03471.598-1.55212.897-.15532.08976-.307.184-.46137.275-1.13473.66861-2.3353,1.24789-3.533,1.82832a9.18578,9.18578,0,0,1-1.41512.61767,7.32835,7.32835,0,0,0-1.25233.44241,9.33468,9.33468,0,0,1-1.5302.01781.99188.99188,0,0,1-.74844-.82274,5.10279,5.10279,0,0,0-.06167-1.19212.544.544,0,0,1,.14672-.52911.93184.93184,0,0,0,.23308-.47331,9.92115,9.92115,0,0,1,.45868-1.12646.101.101,0,0,0,.09431-.08106c.095-.02654.09561-.093.09456-.16011a.45244.45244,0,0,0,.28419-.40023.22957.22957,0,0,0,.18822-.24107l.09567-.081a.14982.14982,0,0,0,.09391-.16026.62169.62169,0,0,0,.1127-.058c.04155-.03344.0971-.08961.037-.124-.05791-.03318-.09564.03375-.11765.07552a.42622.42622,0,0,0-.02616.11079c-.0846.03132-.08873.09634-.09411.16084a.12.12,0,0,0-.09591.08073.22824.22824,0,0,0-.18961.23959.365.365,0,0,0-.2843.4001c-.09564.02654-.09589.09322-.09444.1606a.0996.0996,0,0,0-.09579.07982c-.1292-.049-.19414-.11122-.14609-.24884a3.29378,3.29378,0,0,1,.689-1.124c.096-.106.18391-.21441.271-.32543.52919-.675,1.031-1.36559,1.61486-2.0095a5.34645,5.34645,0,0,1,.55636-.64053.05811.05811,0,0,0-.00892-.10272.12548.12548,0,0,0-.08521-.01151c-.14741.04584-.29736.08851-.438.14682-.831.34448-1.65093.709-2.492,1.03461a13.78994,13.78994,0,0,1-1.73474.70491,4.85268,4.85268,0,0,0-1.61714.79417c-.15389.10507-.33852.12926-.49376.218-.87279.49888-1.82684.87955-2.746,1.30825-.86687.4043-1.67417.88265-2.52414,1.30538-.24315.12093-.47.26656-.71892.37745-.15221.06781-.149.31882-.34019.264-.20153-.05775-.27877.06809-.38886.11752a6.93258,6.93258,0,0,0-.8267.45666,3.10645,3.10645,0,0,1-.43932.23261.85169.85169,0,0,0-.459.32626c-.08545.15056-.30424.18225-.4399.29311-.03019.02466-.09231.0355-.04887.0868a.1055.1055,0,0,0,.11862.04069c.05123-.01424.11833-.05812.14246.0188.00581.01855-.05863.05526-.09409.08024a.46141.46141,0,0,1-.39906.01739,1.35739,1.35739,0,0,0-.72379-.09636c-.02484.00743-.08259-.02287-.08792-.01574-.22445.29963-.3994.05455-.60811-.02384a5.1324,5.1324,0,0,1-.62826-.34836,1.25885,1.25885,0,0,1-.72536-1.13821,3.49941,3.49941,0,0,1,.15485-1.22644c.07959-.23548.01669-.2945-.2693-.27343a3.62646,3.62646,0,0,0-.82969.10687c-.17466.05642-.36483-.04081-.5188.08335-.04094.033-.12049-.0372-.10582-.08791a.2186.2186,0,0,1,.21232-.1857c.11-.00487.22006-.00821.33006-.0128a.23911.23911,0,0,0,.23049-.11526c.09212-.22765.31494-.30181.55216-.38071.32172-.107.63285-.23684.94808-.35771.14723-.05646.29014-.12991.3271-.26919a1.04331,1.04331,0,0,1,.359-.46208,14.47534,14.47534,0,0,1,1.84082-1.538c.64606-.42139,1.25536-.88288,1.88857-1.31867.28082-.19326.56448-.38195.82375-.597.114-.09453.30772-.11643.28822-.31619-.00578-.05927.13367-.14349.22456-.19225a6.41831,6.41831,0,0,1,1.56938-.601c.09027-.02123.20641-.00879.25484-.08372.19138-.2961.55074-.27878.86211-.32251a3.80637,3.80637,0,0,1,.75551.00227,1.06817,1.06817,0,0,1,.739.38872.4442.4442,0,0,1-.00065.53386,2.21731,2.21731,0,0,1-.73676.81888,2.26617,2.26617,0,0,0-.8538.7572,1.792,1.792,0,0,1-.68958.53244c-1.12851.62667-2.26988,1.23793-3.45831,1.7805-.593.27074-1.20548.51486-1.82575.738a1.74364,1.74364,0,0,0-1.05894,1.06177,10.63522,10.63522,0,0,0-.38025,1.433.66123.66123,0,0,0-.00856.15974c-.00017.17473.01993.39044.15137.48134.10855.07508.34485-.05332.50749-.12487.81006-.35634,1.5851-.76406,2.3634-1.16678,1.06034-.54866,2.10346-1.12007,3.19022-1.63348.85158-.40231,1.68054-.83866,2.54306-1.22646.83067-.37348,1.64456-.77362,2.469-1.15714.78159-.36357,1.59693-.672,2.38675-1.02007.83661-.36869,1.70049-.68334,2.55083-1.02436.69611-.27916,1.42747-.489,2.12357-.77128.30438-.12343.63476-.21133.95376-.30916a7.78726,7.78726,0,0,0,1.39256-.7378c.12557-.0669.0911-.15454.035-.243a5.2731,5.2731,0,0,1-.51644-1.025,2.19414,2.19414,0,0,1-.17257-.9777.44032.44032,0,0,1,.04324-.10957.38487.38487,0,0,1,.04623.10561c.00718.06616-.00122.13339.00121.20006a.55559.55559,0,0,0,.15239.38835c.01289-.11877.03529-.23744.03715-.35633a2.97738,2.97738,0,0,1,.67579-1.79979,2.379,2.379,0,0,0,.34237-.47548.21051.21051,0,0,1,.07253-.09893c.77383-.46659,1.35165-1.134,2.179-1.54125a5.02368,5.02368,0,0,1,1.166-.63608c.08343-.01816.14561-.09877.224-.14219a1.27753,1.27753,0,0,1,.618-.26729.399.399,0,0,0,.21526-.07478,5.011,5.011,0,0,1,1.60583-.64589,1.17641,1.17641,0,0,0,.13059-.04539c.08307-.0373.17915-.07326.1506-.175-.02926-.10427-.13731-.091-.22924-.09392-.07877-.00248-.15772-.00017-.23661,0l.00521.00434a.20892.20892,0,0,1,.15541-.139,1.83886,1.83886,0,0,1,.54754-.10615c.127.00979.29088-.16618.35765-.01911.04456.09817-.20268.07557-.29629.14114-.04762.03335-.10567.07048-.08075.13138a.11739.11739,0,0,0,.15311.05469,2.59131,2.59131,0,0,1,.50991-.07182c.17925-.01982.408-.11569.41239-.22228.01259-.30342.23674-.18489.37926-.1618a1.66976,1.66976,0,0,0,.76722-.05637,2.08345,2.08345,0,0,1,.93418-.00941,6.0612,6.0612,0,0,0,1.21057.1269,4.01992,4.01992,0,0,1,1.36477.27321,11.09731,11.09731,0,0,1,2.31487,1.20618,6.83348,6.83348,0,0,1,.90275.68151,1.6138,1.6138,0,0,1,.50449,1.09538,3.93667,3.93667,0,0,1-1.30827,3.18243.45487.45487,0,0,1-.11862.05974Zm9.18469,8.25491a.11682.11682,0,0,0-.01543-.03669c-.00529-.00612-.021-.00577-.032-.00833q-.00939.03639.05236.04082a.11494.11494,0,0,0,.01522.03436c.00508.00581.01947.00579.02969.00839ZM172.11774,18.838l-.0949.08008c-.08148.032-.0874.09577-.09372.15938l-.09594.081a.15434.15434,0,0,0-.09342.1596.165.165,0,0,0-.0367.01271c-.00651.00413-.00743.01459-.01085.02222l.04175-.03985c.0837-.03106.0853-.09665.09369-.15939l.09571-.081c.08909-.02883.09057-.09452.09376-.15949a.10745.10745,0,0,0,.09488-.07994.14588.14588,0,0,0,.03665-.01384c.00621-.00453.00528-.016.00755-.02441Zm-7.86231,7.61259c-.04732.01-.08233.03307-.08215.07593.00012.032.03416.04663.04526.02786a.41245.41245,0,0,0,.03138-.10776c.09-.02921.09612-.09362.09461-.16123a.6833.6833,0,0,0,.08652-.00752c.04533-.00961.0801-.03468.07371-.0761a.076.076,0,0,0-.05286-.04686.07837.07837,0,0,0-.09.06132.43779.43779,0,0,0-.01206.073c-.09037.02909-.09585.09377-.09442.16131ZM145.682,22.91933c.04527-.0113.07986-.03413.07937-.07584-.00036-.03174-.033-.045-.04385-.02577a.41676.41676,0,0,0-.02947.106c-.08876.02955-.096.09353-.09507.161a.74285.74285,0,0,0-.11118.05883c-.03248.02478-.05488.06261.00765.0799a.08887.08887,0,0,0,.06953-.03536.42657.42657,0,0,0,.02837-.10815l.1006.00006c-.01786.32133-.27107.56123-.4059.84208-.062.12919-.17757.06109-.276.06639a.09231.09231,0,0,0-.06142.05219,2.44217,2.44217,0,0,0-.19186.69437c-.00138.022.03534.09853.06167.02669.08844-.24126.1337-.03483.15825.0127a1.5403,1.5403,0,0,1,.06169.23151.14606.14606,0,0,0,.20476.1072c.05934-.01729.12325-.02365.1821-.04185a13.98285,13.98285,0,0,0,2.52534-1.05481c.7927-.42884,1.63288-.78979,2.40247-1.25265.58247-.35033,1.20642-.65007,1.796-.99573,1.005-.58926,1.9564-1.24249,3.00538-1.78123a7.3015,7.3015,0,0,0,.78122-.44079c.6826-.4657,1.36847-.928,2.048-1.39684.132-.0911.37219-.19832.33221-.30749-.04707-.12864-.2935-.17544-.48006-.20984-.07541-.0139-.15162-.02578-.22816-.034-.40343-.043-.80744-.09166-1.207-.14759a10.308,10.308,0,0,1-3.2784-1.05394.685.685,0,0,0-.72855.01292,3.72887,3.72887,0,0,1-.73866.42026l.00472.00394a.16245.16245,0,0,1,.10219-.16448,2.615,2.615,0,0,0,.485-.37578c.06637-.053.19154-.12778.14012-.18625-.08165-.09286-.14191.04449-.21778.06921a3.05106,3.05106,0,0,0-.51147.27688,8.24422,8.24422,0,0,0-.89388.64311c-.29266.2132-.74368.22058-.9329.546-.25763.02767-.2237.26138-.36832.37361a8.48327,8.48327,0,0,0-.79182.67082,1.41073,1.41073,0,0,0-.516.87138c-.04454.01171-.0782.035-.07883.07563-.00048.03114.03159.0442.04288.02471a.41073.41073,0,0,0,.03-.10468,3.57812,3.57812,0,0,0,.56087-.42032c.04539-.0318.10428-.07328.16008-.01045a.07429.07429,0,0,1-.01194.10437l-.00363.00271A18.73815,18.73815,0,0,0,147.426,20.9477c-.48621.59591-.94072,1.21037-1.40567,1.81859-.09352.12233-.16476.25829-.33823.31849Zm-10.13564-6.57116a.58335.58335,0,0,0,.09235-.01543c.04286-.0143.094-.04474.05888-.08215-.04-.04261-.0757.00874-.1024.03274a.273.273,0,0,0-.04311.06971.19007.19007,0,0,0-.03909.0113c-.007.00369-.009.014-.01318.02136ZM162.45476,28.9345a.35627.35627,0,0,0-.285.39952.77686.77686,0,0,0-.4505.47885c-.08444.19965-.28489.3694-.25192.60335.19409-.139.2617-.34984.40717-.518.14343-.1658.31727-.33295.29258-.5662a.46213.46213,0,0,0,.28287-.40149.15069.15069,0,0,0,.03825-.01361c.00647-.00453.00565-.01647.00811-.02508Zm-9.14031-14.99614a1.77784,1.77784,0,0,0,.51451-.02606.201.201,0,0,1,.17691.0305,2.23233,2.23233,0,0,0,.50919.19274.44908.44908,0,0,1,.372.42021c-.00038.198-.14353.35569-.41464.42529-.114.02926-.22333.10774-.36056.0552-.0613-.02347-.08017.02316-.08489.06309-.003.02507-.00114.06138.017.075a.61468.61468,0,0,0,.12083.05377c.20563.09.20426.08885.024.223a1.8251,1.8251,0,0,0-.19959.17c-.05981.0597-.05209.11341.02817.16689a3.0449,3.0449,0,0,0,.7616.3093,16.61683,16.61683,0,0,0,1.97529.51872c.65654.1276,1.31847.23014,1.97525.35432a1.48287,1.48287,0,0,0,1.23206-.25689c.5746-.47487,1.19966-.903,1.75865-1.39056.8537-.74459,1.74268-1.45882,2.56653-2.22991a5.67794,5.67794,0,0,0,1.38241-1.78047c.06543-.14627.176-.29044-.02392-.43068a.11974.11974,0,0,1,.02684-.2079c.34346-.16023.30028-.43787.26228-.67794a3.10378,3.10378,0,0,0-.27429-.79786,2.8548,2.8548,0,0,0-1.95979-1.59556,5.28471,5.28471,0,0,1-.87374-.25873,1.44078,1.44078,0,0,0-.65233-.03359c-.0426.00114-.0836.0329-.06817.08026.01118.03437.03726.03174.07617.01954.126-.03949.29544-.055.29793.08.00166.0905-.18411.02894-.28482.03866a1.89433,1.89433,0,0,1-.28237.002c-.05482-.003-.043-.03-.03746-.07356.01877-.14711-.03485-.19287-.13044-.12857a.80935.80935,0,0,1-.665.10135.53439.53439,0,0,0-.2255.01471,9.19706,9.19706,0,0,0-1.66911.39082c-.09708.03552-.294.03371-.26533.11817.04246.125.16955-.03638.26733-.01443.02937.00659.06349-.00317.09393.00153a.527.527,0,0,1,.08544.02765c-.0208.0177-.03794.0426-.0631.05181-.08619.03155-.17413.06035-.26335.08521a7.381,7.381,0,0,0-.75609.21092,22.73111,22.73111,0,0,0-2.55173,1.25781c-.47219.2612-.903.57158-1.34226.87263a6.5263,6.5263,0,0,0-1.69678,1.6401,2.51714,2.51714,0,0,0-.36627,1.656c.00373.0948.04028.15194.19241.17407A4.11046,4.11046,0,0,0,153.31445,13.93836Zm-20.4328,5.67748a.62553.62553,0,0,0,.08667-.02813c.48914-.24155.97682-.48521,1.46656-.72588.89726-.44092,1.73225-.96028,2.58041-1.46306a9.18876,9.18876,0,0,0,1.24567-.97819c.10548-.08964.17208-.19639.11306-.32494a.22576.22576,0,0,0-.21191-.13737.13857.13857,0,0,0-.1527.12193c-.03537.16483-.1916.23337-.34695.3014a6.47189,6.47189,0,0,0-1.14239.6733c-.54235.38605-1.13561.71307-1.67,1.10638-.60353.44418-1.23984.8565-1.86086,1.28374a1.28254,1.28254,0,0,0-.13266.113C132.82951,19.58258,132.83965,19.6032,132.88165,19.61584Zm44.138-.19017-.04226-.0665a.31475.31475,0,0,0-.078.043c-.34509.36237-.55784.79642-.88308,1.16978a.04509.04509,0,0,0-.00713.03879c.0107.03566.02574.07038.03909.10547a.28871.28871,0,0,0,.0799-.039,5.46624,5.46624,0,0,0,.62321-.83949c.09207-.13745.18036-.27677.26827-.41205Zm-13.16922,7.59248c-.02147-.02628-.03434-.05862-.05407-.062a.10873.10873,0,0,0-.0803.02659,2.21551,2.21551,0,0,0-.36454.51048c-.01859.03659-.04738.08137.001.10425a.14694.14694,0,0,0,.11086-.0424,1.973,1.973,0,0,0,.387-.53692Zm3.52088-3.74234a.31692.31692,0,0,0-.0176-.04842.04838.04838,0,0,0-.06556-.0196l-.01065.00779q-.18615.14988-.36629.30508c-.02843.02453-.07556.058-.03078.09457.03823.03123.08589.0088.12165-.01616.10765-.07512.21676-.1491.31854-.22966C167.35062,23.34566,167.35812,23.30156,167.37131,23.27581Zm8.48434-2.30672c-.01112-.01038-.02164-.02838-.03215-.02839a.18575.18575,0,0,0-.0845.01334c-.11151.06241-.14174.16939-.19254.26459a.04175.04175,0,0,0,.00446.03587c.017.02913.04251.02953.07513.00635A.58279.58279,0,0,0,175.85565,20.96909Zm-9.90372,3.75084c.05651-.085.09565-.144.135-.20293.02324-.03481.04469-.07314.01071-.10757a.09944.09944,0,0,0-.07864-.02223.2002.2002,0,0,0-.14824.18639C165.87151,24.59662,165.89478,24.61914,165.95193,24.71993Zm-12.15725-9.47027a.33616.33616,0,0,0-.18912.15828c-.01894.05008.03439.06011.08012.0594.0985-.00154.17864-.03453.19245-.1227.004-.02511-.04791-.05647-.08344-.095ZM159.27612,35.056a.38547.38547,0,0,0-.09633.07307c-.03688.05621-.05853.12227.00892.1735a.066.066,0,0,0,.10333-.02561A.18253.18253,0,0,0,159.27612,35.056Zm-8.29657-22.6643c-.019-.01569.00948-.07226-.04916-.06114-.01914.00363-.03136.06751-.03026.10348a.36386.36386,0,0,0,.03606.10457C150.98865,12.50085,150.97722,12.449,150.97955,12.3917Zm20.26631,9.55686-.02534-.02582a.33175.33175,0,0,0-.03242.05576c-.002.00549.01579.01619.02453.02449Zm-5.8858-9.58572c.003-.01269.01315-.02844.00774-.03753-.01934-.03232-.0409-.02784-.05147.01148-.00278.01033.00777.02322.01221.03493Zm6.33959,4.74187c.00332.00876.00383.02245.01057.02521a.06632.06632,0,0,0,.04282.00432c.03755-.01555.03268-.03251-.01267-.04039C171.7282,17.09174,171.7133,17.10079,171.69965,17.10471Zm-8.9142,11.22236a.34754.34754,0,0,0-.03147.06131c-.00184.00607.01781.01683.02761.02544a.3391.3391,0,0,0,.03184-.06088C162.81532,28.3468,162.79549,28.33587,162.78545,28.32707Zm29.131-15.74507a.79418.79418,0,0,1-.083.0349c-.158.04722.0596.228-.10028.24022-.1712.01308-.15437.07737-.15109.17847.00126.03978-.06328.09371-.11338.12013a5.58484,5.58484,0,0,0-1.173.96083,10.40566,10.40566,0,0,1-.8949.75009,5.4392,5.4392,0,0,0-.77266.78312,1.56276,1.56276,0,0,1-.67308.53479.41792.41792,0,0,0-.2265.19112.50093.50093,0,0,1-.269.21308l.00548.00465.08873-.32431a.11717.11717,0,0,0,.09537-.081c.09-.0287.09119-.09454.0934-.15994a.1069.1069,0,0,0,.095-.07981l.09579-.08093a.24048.24048,0,0,0,.18883-.23951.60942.60942,0,0,0,.113-.05507c.04214-.03266.09663-.0883.03842-.12285-.05574-.03309-.09544.03333-.11922.073a.35747.35747,0,0,0-.02662.10916.24468.24468,0,0,0-.18877.24l-.09579.08087a.11445.11445,0,0,0-.095.07992c-.08143.03221-.08964.0951-.09355.15979a.10773.10773,0,0,0-.09582.08047c-.21535.01748-.29433.17711-.415.29025-.15611.14644-.27575.32631-.537.363a.2709.2709,0,0,0-.17012.12836,14.86939,14.86939,0,0,0-1.28036,1.51122c-.12795.21621-.40863.19913-.59163.32554-.03824.02642-.098-.00494-.08182-.04955a.73255.73255,0,0,1,.12935-.2959.54174.54174,0,0,0,.19362-.35438.10567.10567,0,0,0,.09585-.08054c.08533-.0305.09357-.09345.094-.15971a.09733.09733,0,0,0,.09509-.07985.1081.1081,0,0,0,.09525-.08087c.0848-.031.08651-.09688.09426-.16028.14775-.07288.27236-.16045.28389-.31986a.11853.11853,0,0,0,.09429-.08014l.09591-.08115c.03974-.0297.11641-.05051.03672-.109l-.0311.11385a.11752.11752,0,0,0-.09566.081.10758.10758,0,0,0-.09492.07979c-.15557.06777-.27161.16063-.28362.31957-.08825.02968-.093.0945-.09443.16069a.10442.10442,0,0,0-.09578.0804.10868.10868,0,0,0-.09479.08019c-.08945.02891-.08991.09509-.09361.15992a.11347.11347,0,0,0-.09575.0807,2.43519,2.43519,0,0,0-.56385.62646c-.20985.32678-.44166.64343-.66154.96565a.45421.45421,0,0,1-.29987.23914,1.30661,1.30661,0,0,0-.89877.71364c-.14886.21579-.30208.432-.447.651a4.36718,4.36718,0,0,0-.30476.58253c-.06108.13168.03632.225.144.30788l-.00394-.00328c.00465.33653-.24962.59677-.38454.88983a5.0409,5.0409,0,0,0-.42562,1.42254,1.96383,1.96383,0,0,0,.113.6616,1.66537,1.66537,0,0,0,.64476.3057,2.51427,2.51427,0,0,0,1.35192-.27734c.25953-.12661.5214-.24714.78959-.35837a20.17639,20.17639,0,0,0,1.847-.8825c.19846-.107.41538-.18921.61746-.29175.818-.415,1.6306-.83747,2.45427-1.24489a3.98855,3.98855,0,0,0,1.03382-.53508c.04867-.04591.17042-.123.24923-.0474.16187.15537.21357.09333.25817-.064a.51323.51323,0,0,1,.46779-.34327,1.32344,1.32344,0,0,0,.44212-.21,3.63512,3.63512,0,0,1,1.33548-.63713.58635.58635,0,0,0,.36255-.17639c.219-.25057.64448-.32333.76012-.669a3.37515,3.37515,0,0,1,.3475-.73949,11.49623,11.49623,0,0,1,1.95607-2.41723c.06621-.2442.34193-.31706.535-.45216.17084-.11956.35828-.21521.41323-.41407.02044-.074.11337-.08592.16853-.13017a1.58207,1.58207,0,0,0,.32806-.28573c.2177-.31879.60939-.49571.8577-.78619.07956-.09308.16512-.03314.25-.01124a1.29116,1.29116,0,0,1-.28262.35771c-.37183.31527-.73351.63915-1.10614.9537a.55058.55058,0,0,0-.22387.37472.51038.51038,0,0,0-.4477.24227,3.49408,3.49408,0,0,1-.64226.72093.34076.34076,0,0,0-.14038.31994.326.326,0,0,0-.29491.16349c-.28743.36308-.57687.72523-.87688,1.08092a2.92125,2.92125,0,0,0-.49456.85442c-.01464.03832-.03986.08338.01455.10449.079.03068.09328-.028.12345-.074a11.41389,11.41389,0,0,1,1.186-1.66676c.129-.13692.322-.26185.33765-.46589.47436-.3184.72883-.80039,1.1793-1.13752.03821-.02858.03638-.09542.05315-.14449a.5849.5849,0,0,0,.25351-.17056c.51112-.42719.94942-.91116,1.47147-1.33148a7.94832,7.94832,0,0,0,.86854-.66318,4.43637,4.43637,0,0,1,.945-.69494,5.16231,5.16231,0,0,0,.91249-.66676.6939.6939,0,0,0,.08647-.01021c.04448-.01075.081-.03482.07268-.077a.07752.07752,0,0,0-.05544-.04488.07878.07878,0,0,0-.08883.063.45017.45017,0,0,0-.00968.07338.72827.72827,0,0,0-.42042.152c-.39466.25282-.79322.50205-1.17446.76887-.42634.29839-.83537.61449-1.252.92288-.02616-.39132.20414-.62254.63485-.73007a.73942.73942,0,0,0,.4406-.26756c.13046-.16858.38612-.2394.578-.36453.29526-.19253.58939-.38859.88228-.58432a6.55,6.55,0,0,1,.72379-.35028c.139-.06985.24-.012.25059.13191a.10915.10915,0,0,0-.095.08122.66791.66791,0,0,0-.12674.01951c-.02611.00915-.01022.04372.02313.037a.316.316,0,0,0,.09787-.06123.12036.12036,0,0,0,.09592-.08049c.271.04077.4408-.2037.706-.17921.284-.21089.71894-.1876.9708-.46311.09965-.109.321-.0971.44584-.20819a.10961.10961,0,0,1,.08672-.01119c.22276.23015.50606.023.74652.07757a6.03991,6.03991,0,0,0,.77428.15847,1.30431,1.30431,0,0,1,1.05044.70787.21518.21518,0,0,1-.02745.2256,3.27514,3.27514,0,0,1-.71673.88526,21.95345,21.95345,0,0,1-2.32662,1.74716c-.57333.39039-1.13049.80048-1.73629,1.15229-.69754.40507-1.35277.85877-2.08669,1.22409-.74294.3698-1.42813.82181-2.16148,1.20659-.3042.15959-.63269.30365-.9216.47348-.39852.23426-.91474.38692-1.09394.83786-.01336.03362-.10516.10578-.12845.01975-.05892-.21772-.161-.14146-.2859-.05189a1.53031,1.53031,0,0,1-.37576.23486c-.18877.06907-.179.1116-.00865.2749a.18266.18266,0,0,1,.06309.18381.7949.7949,0,0,0-.061.232c.01422.17319-.09069.35838.06292.51909a.8049.8049,0,0,0,.20713-.47151.34486.34486,0,0,1,.0464-.11224c.02882-.04179.0383-.09944.10826-.114a.57551.57551,0,0,1,.02641.115,1.28584,1.28584,0,0,1-.05346.35418,1.674,1.674,0,0,0,.19427,1.12916c.09952.21679.368.2365.56065.22349a2.75271,2.75271,0,0,0,.89722-.19089c.45934-.192.94186-.35309,1.3877-.56843.66665-.322,1.40809-.51175,2.05587-.86919a3.88322,3.88322,0,0,1,.90943-.32393,6.68783,6.68783,0,0,1,1.05436-.33228c.20292-.29625.613-.28123.90636-.436a3.63792,3.63792,0,0,1,1.44257-.52508.7206.7206,0,0,0,.20445-.09047,16.23819,16.23819,0,0,1,1.845-.66041,23.03353,23.03353,0,0,0,2.34674-.79166,2.449,2.449,0,0,1,.49318-.12466,4.1334,4.1334,0,0,1,1.17037-.25625.47655.47655,0,0,0,.25834-.08775,4.5567,4.5567,0,0,1,1.35294-.437c.49248-.12282,1.0047-.17981,1.4926-.33042a1.03558,1.03558,0,0,1,.73211-.05961.10794.10794,0,0,0,.04415.00187c.1-.00589.18576-.18681.27035-.0651.08814.12678-.10983.19433-.20034.275-.07866.07007-.16831.09627-.16785.24017.00046.14273-.20036.24547-.3849.31093-.91054.323-1.85018.57031-2.79454.81063a11.31993,11.31993,0,0,0-1.09058.34865c-.47447.17362-.9662.30554-1.44145.47493-.34769.12392-.69913.24028-1.04856.36076a.99533.99533,0,0,1-.216.0776,9.90174,9.90174,0,0,0-1.39018.36372,14.55,14.55,0,0,0-1.73337.61684c-1.2188.45646-2.3788,1.01175-3.54465,1.5548a5.38625,5.38625,0,0,0-.67987.31386c-.09663.06305-.27675.11979-.07544.26216.05144.03639-.029.08349-.08206.11363a3.0569,3.0569,0,0,1-1.075.38068,3.71423,3.71423,0,0,0-.49267.12009,9.0336,9.0336,0,0,1-1.95867.39886,4.39165,4.39165,0,0,1-1.3814-.11738.82852.82852,0,0,1-.29259-.12474,4.28658,4.28658,0,0,1-1.26036-1.32959,2.38032,2.38032,0,0,1-.1402-.46175,2.157,2.157,0,0,0-.05759-.23289c-.063-.15553-.11346-.17063-.26858-.09045-.791.40888-1.58814.8098-2.36791,1.23351a5.30693,5.30693,0,0,1-.71679.37769.33492.33492,0,0,0-.19558.16468.44385.44385,0,0,1-.28872.19349,4.93114,4.93114,0,0,0-1.48819.79891,2.22872,2.22872,0,0,1-.45507.19865,10.83923,10.83923,0,0,0-1.09252.62169c-.12444.07544-.23464.18613-.41924.129-.04668-.01444-.10582.00355-.11545.04343-.05562.23028-.31013.2461-.496.32678a13.25751,13.25751,0,0,1-1.39536.56445,4.27817,4.27817,0,0,1-1.14338.1719c-.26608.00585-.53414.03948-.79451.04776a2.1296,2.1296,0,0,1-1.86539-.6422,1.39863,1.39863,0,0,1-.26591-.50685,1.831,1.831,0,0,1-.06481-1.277.94769.94769,0,0,0,.03919-.27706l-.00472.004a.539.539,0,0,0,.16368-.4377c-.05642-.28022.32372-.36548.30007-.60319a1.01032,1.01032,0,0,1,.27163-.66788,4.54508,4.54508,0,0,1,.67862-.89269,1.25072,1.25072,0,0,0,.14722-.20249,16.99854,16.99854,0,0,1,1.10515-1.37344,13.84216,13.84216,0,0,0,1.06947-1.29821A8.60816,8.60816,0,0,1,184.928,16.6859c.05368-.04874.109-.09653.16747-.14106.04311-.03282.09332-.0937.15108-.05893.07063.04253.03131.1236.03938.188-.19009-.00059-.27525.08776-.28465.24032a.77962.77962,0,0,0-.38187.47808c-.27757.04278-.28935.28486-.43422.42638a2.81177,2.81177,0,0,0-.51079.77761.3104.3104,0,0,0-.17323.12729c-.29.36127-.57793.72375-.87382,1.08153a1.02921,1.02921,0,0,1-.33437.32171c-.14331.07177-.052.24912-.16182.36572a6.93307,6.93307,0,0,0-.85611,1.274,12.52332,12.52332,0,0,0-.81587,1.4819,6.78815,6.78815,0,0,0-.27036.962c-.01242.04771-.00831.11924.07238.12163.08009.00237.07449-.06856.08789-.11774.056-.20564.09811-.415.172-.61594a10.21245,10.21245,0,0,1,1.26067-2.3061c.51944-.74159,1.07941-1.46281,1.61333-2.19725a1.07223,1.07223,0,0,0,.2754-.50165,3.81137,3.81137,0,0,0,.9495-1.20055.63529.63529,0,0,0,.37553-.483c.12717-.053.28033-.084.28468-.24089.23639-.2436.47515-.48561.70667-.73247a.40549.40549,0,0,0,.05617-.14847l-.00516.0049a.257.257,0,0,0,.19505-.24666l-.00627.00606a.11462.11462,0,0,0,.10164-.08588l-.0062.00615a1.50194,1.50194,0,0,0,.32643-.21265c.181-.14312.22158-.34568.369-.49776.42561-.4392.84714-.88128,1.27229-1.3208a5.91036,5.91036,0,0,0,.59621-.69933l-.00615.00521a1.00424,1.00424,0,0,0,.40614-.35745.38741.38741,0,0,1,.35661-.2088.16049.16049,0,0,0,.01856.03088c.005.00538.01607.0067.02441.00985L189.637,12.186c.017-.21539.19292-.3491.346-.49921.50735-.49758,1.00734-1.00054,1.50847-1.50263.03619-.03627.11163-.08045.06869-.12619-.051-.05424-.108.00438-.15112.03641-.08048.05978-.13483.1476-.25345.16562l.00125.001c.03485-.2474.279-.34606.47537-.4787l-.00529-.00441c.01092.1056.03184.20568.1898.09839.09725-.06605.19441-.13854.19467-.25957l-.0061.00575a.11573.11573,0,0,0,.10178-.0861l-.00646.00618a.24146.24146,0,0,0,.19527-.24677l-.00632.006a.11946.11946,0,0,0,.10153-.086l-.007.00546a.2784.2784,0,0,0,.29077-.24585l-.00545.00493a2.2065,2.2065,0,0,0,.76328-.72564l-.00559.00488a1.30376,1.30376,0,0,0,.40856-.319c.31024-.2739.60872-.55729.91383-.83538a.2782.2782,0,0,0,.10405-.21267l-.00607.0051a2.33613,2.33613,0,0,0,.45747-.33039c.5-.45276.99393-.91111,1.5033-1.3552.30215-.26343.61363-.518.88731-.80371l-.006.005a4.85576,4.85576,0,0,0,.9503-.80426,5.25741,5.25741,0,0,0,1.13392-.88288.56633.56633,0,0,0,.28389-.24132.30364.30364,0,0,0,.28449-.15949.18419.18419,0,0,0,.03671-.01541c.00609-.00423.00627-.01452.00911-.02209l-.03992.04223a.2627.2627,0,0,0-.28509.15968c-.17328.014-.28.084-.28284.241a2.86584,2.86584,0,0,0-.98842.643c-.07988.06362-.16119.12952-.15144.23571-.0313.00173-.06264.0052-.0939.00482-.057-.0007-.11542.06695-.16808.00715a.10094.10094,0,0,1,.00563-.14261l.00517-.00446c.20424-.18378.386-.38324.57831-.57525a9.56942,9.56942,0,0,1,1.69434-1.31088c.06323-.03964.12955-.07592.154-.14465a.10411.10411,0,0,0,.09449-.08025.19332.19332,0,0,0,.03722-.01131c.00682-.00365.00932-.01311.01376-.02l-.04525.03621a.11413.11413,0,0,0-.09479.07982c-.13234-.00047-.2283.086-.34892.10695-.128.02223-.25339.189-.35791.07642-.04534-.04884.16557-.16806.27438-.23916a1.18342,1.18342,0,0,0,.43294-.34947l-.00585.00481c.0743-.01037.15137-.01625.18929-.08476.04736-.01389.0856-.03552.0957-.08094.03716-.01823.13432.03014.1012-.05705-.00614-.01612-.08083.018-.09575.06156l-.09543.08115-.1927-.00364.00166.00145a.32488.32488,0,0,1,.2012-.20691,9.15392,9.15392,0,0,0,.8879-.49145c.03372-.02012.09611-.01805.0996.03031.00257.03514-.03163.07218-.04943.10838a.20952.20952,0,0,0-.04049.01394c-.00689.004-.00842.01465-.01237.0223l.04691-.04115a7.6443,7.6443,0,0,1,.86111-.36639c.29456-.05749.2928-.06845.50626.16752a.24329.24329,0,0,0,.2797.09579.34194.34194,0,0,1,.26708.024c.34567.13779.365.46362.55664.69014-.12131.047.09258.31219-.2215.24177-.037-.0083-.04371.06281.00312.07959a.85464.85464,0,0,0,.18217.03018c.0743.009.17284-.009.19483.07283.02316.08619-.08771.09229-.14342.13175a1.87869,1.87869,0,0,1-.28507.208,2.26311,2.26311,0,0,0-1.07087.96836c-.09658.17164-.37368.19975-.46114.38582a.17048.17048,0,0,0-.038.01553c-.00628.00454-.00574.01584-.00826.0241l.04035-.04442.1943.00518-.00471-.004A11.14206,11.14206,0,0,1,201.262,4.50536a23.91136,23.91136,0,0,0-1.91858,1.52193c-.59579.52581-1.2355,1.01663-1.8191,1.55156-.64908.595-1.289,1.19743-1.93308,1.79648-.40935.38073-.8177.76357-1.21661,1.15316a9.28133,9.28133,0,0,1-1.34973,1.03112.39852.39852,0,0,0-.16257.18405,1.22324,1.22324,0,0,1-.52023.496,1.56534,1.56534,0,0,0-.431.347Zm-3.59939,1.68838a.11658.11658,0,0,0-.095.08.16247.16247,0,0,0-.03695.01584c-.0061.00465-.00526.01585-.00752.02411l.03873-.04481.09483-.07993a.17357.17357,0,0,0,.03555-.0164c.006-.00459.00579-.015.00838-.02272Zm15.91479-.00023a.11281.11281,0,0,0-.09492.08.553.553,0,0,0-.50115.29053c-.01024.02057-.019.05289-.00721.06694a.09336.09336,0,0,0,.075.01571c.14194-.12645.3783-.177.42821-.37742l.09448-.08034a.1697.1697,0,0,0,.03938-.01359c.00669-.00433.00673-.016.00979-.02431Zm-16.294.40068-.0949.08014a.16954.16954,0,0,0-.0363.01529c-.00616.00446-.0061.015-.00885.02289l.03941-.043a.11336.11336,0,0,0,.09487-.08021.15591.15591,0,0,0,.04022-.01172c.007-.0043.00693-.01667.01-.02543Zm-.663.72143a.11745.11745,0,0,0-.09485.08008.166.166,0,0,0-.03409.01527c-.00587.00439-.006.01423-.00877.02163l.03713-.04175.09472-.08a.16762.16762,0,0,0,.03642-.01531c.00626-.00456.00632-.01523.00914-.02316Zm1.89459-2.0035a.10473.10473,0,0,0-.09478.08009.11451.11451,0,0,0-.095.0799.1505.1505,0,0,0-.0357.01579c-.00578.00465-.00423.01583-.006.02408l.03617-.04458a.10371.10371,0,0,0,.09463-.08.1142.1142,0,0,0,.09508-.07982l.09576-.08112a.17026.17026,0,0,0,.03827-.01637c.00632-.00477.00545-.01633.00781-.02484l-.04052.04594Zm-2.55769,2.72467a.1686.1686,0,0,0-.03728.0148c-.00634.00447-.0063.01543-.00914.02347l.0405-.04323a.16374.16374,0,0,0,.03986-.01379c.00674-.00454.00636-.01667.00918-.02539Zm-.28918.315a.16175.16175,0,0,0,.03808-.01334c.00652-.00431.0065-.01567.0094-.02387l-.04188.04186a.1519.1519,0,0,0-.04076.01351c-.00675.00469-.00531.01779-.00754.02712ZM196.65315,6.17649a.11208.11208,0,0,0-.09494.08l-.09474.08033-.09447.08027a.16751.16751,0,0,0-.03436.01593c-.00581.00447-.00569.01444-.00822.02194l.03682-.04283a.10546.10546,0,0,0,.09458-.08017.11208.11208,0,0,0,.09469-.08035.10157.10157,0,0,0,.09492-.07985.10887.10887,0,0,0,.09551-.081.11141.11141,0,0,0,.09379-.07938.10637.10637,0,0,0,.09493-.07992l.09478-.08.09467-.08038a.177.177,0,0,0,.04077-.01225c.00717-.0042.00819-.01589.012-.02423l-.047.04148-.0947.08016-.09489.07993a.10781.10781,0,0,0-.09467.08019l-.09381.07926A.11555.11555,0,0,0,196.65315,6.17649Zm-1.042.9618-.095.0799-.09459.08027a.1184.1184,0,0,0-.09492.07993l-.09471.08018-.09462.08035a.173.173,0,0,0-.03365.01651c-.00561.00446-.00547.01415-.0079.02149l.036-.0428a.116.116,0,0,0,.09478-.08015.10767.10767,0,0,0,.09439-.08044.10183.10183,0,0,0,.095-.0798l.095-.07993a.11818.11818,0,0,0,.09436-.08041.16749.16749,0,0,0,.03674-.013c.00649-.00413.00731-.01457.0107-.02219Zm-1.04209.96155a.11592.11592,0,0,0-.09509.07966q-.0941.0808-.18929.16034a.10886.10886,0,0,0-.09457.08053l-.095.07983a.42065.42065,0,0,0-.28284.3202.178.178,0,0,0-.04008.01147c-.00708.004-.00849.01519-.01244.02316l.04674-.0396c.1445-.07486.27572-.15812.28326-.31979a.10643.10643,0,0,0,.09452-.08029.098.098,0,0,0,.09538-.07971.10332.10332,0,0,0,.09422-.08042.10042.10042,0,0,0,.095-.08.11525.11525,0,0,0,.09458-.07992l.096-.081c.05842-.04179.12035-.08071.17377-.12667.02465-.02118.09028-.04891.03022-.08478-.01722-.01029-.07879.01985-.11.04172a.221.221,0,0,0-.08891.17419ZM201.674.56686a.1708.1708,0,0,0-.04224.012c-.0071.00418-.00723.01685-.0105.0257l.04749-.04206a.189.189,0,0,0,.04-.01272c.00687-.004.0081-.01491.01184-.02272Zm.66314.40086a.11718.11718,0,0,0-.09477.08009c-.07539.00609-.15128.01136-.19.07992-.17229.01456-.27876.08457-.28316.24055a.63539.63539,0,0,0-.47394.31964.09983.09983,0,0,0-.09477.08127.21191.21191,0,0,0-.19035.07819l-.09459.08136a.23411.23411,0,0,0-.03314.01339c-.00632.00369-.00954.01119-.01413.017l.04284-.03394.09624-.08c.07056-.01338.14993-.01215.1871-.08084.04685-.01413.08551-.03525.09618-.08036a.707.707,0,0,0,.47278-.32008.49.49,0,0,0,.28349-.2415c.07755-.002.15405-.0057.18965-.07938a.11251.11251,0,0,0,.09485-.08013.18359.18359,0,0,0,.04082-.01232c.00714-.00408.00839-.01551.01228-.02364Zm-4.73657,4.40743a.11057.11057,0,0,0-.09463.08026.10416.10416,0,0,0-.09472.08.16626.16626,0,0,0-.04148.01119c-.00715.00409-.00762.01651-.01108.02519l.04712-.04086a.1168.1168,0,0,0,.09422-.0803l.095-.07988a.203.203,0,0,0,.032-.016c.00569-.00419.00717-.01247.01054-.01891Zm-6.91528,6.49108a.11717.11717,0,0,0-.09481.0802l-.09478.08007-.09508.08a.19123.19123,0,0,0-.03314.01753c-.0056.0045-.00592.01367-.00864.02074l.03639-.043a.10848.10848,0,0,0,.09468-.08009.11325.11325,0,0,0,.09476-.08l.0947-.08019.09582-.081a.16267.16267,0,0,0,.036-.01574c.00592-.0045.00514-.01532.00738-.02329l-.03763.044a.10708.10708,0,0,0-.09571.08082ZM189.643,12.9078a.11967.11967,0,0,0-.09482.08024.16281.16281,0,0,0-.037.01476c-.00628.00452-.006.01555-.00871.02365l.0399-.04325a.11416.11416,0,0,0,.0951-.08007.14168.14168,0,0,0,.0386-.01332c.00649-.00471.00507-.01723.00717-.02625Zm2.17906-2.16339a.11705.11705,0,0,0-.095.08.16348.16348,0,0,0-.036.014c-.00619.00427-.00645.01471-.00938.02239l.03958-.04125.095-.07983a.17392.17392,0,0,0,.03476-.01716c.00587-.00471.0056-.01487.00807-.0226Zm-.758.72118a.15957.15957,0,0,0-.03735.0142c-.00632.00443-.00591.01569-.00852.02389l.04-.043a.16288.16288,0,0,0,.03683-.01356c.00643-.0043.00687-.015.01-.0229Zm.37874-.40076c-.0253.02542-.06219.048-.07243.07715a.022.022,0,0,0,.03956.01849.411.411,0,0,0,.0271-.10069.18064.18064,0,0,0,.04085-.01043c.00739-.00384.00932-.01512.01369-.02306Zm-5.39969,5.68967c-.0461.02424-.11294.06876-.05351.097.04257.02024.03638-.06326.04785-.1019a.1673.1673,0,0,0,.03546-.01228c.00643-.004.0078-.01378.01146-.021Zm-4.64184,5.6892c-.046.01126-.07972.03505-.07865.07693.00083.03215.03327.04514.04408.02562a.43174.43174,0,0,0,.02944-.10677.1568.1568,0,0,0,.03993-.014c.00665-.00463.00565-.01713.00809-.02609Zm7.19958-8.494c-.04842.02246-.11606.0679-.05586.09529.04841.02205.04051-.06106.05012-.10024a.16137.16137,0,0,0,.03577-.01135c.00647-.00384.00781-.01386.01147-.02111Zm14.67932,1.03678a.78527.78527,0,0,0,.11044-.05938c.01728-.013.03437-.05118.02611-.05917a.06381.06381,0,0,0-.10566.015.36688.36688,0,0,0-.02628.108.57177.57177,0,0,0-.12416.02179c-.02361.00965-.00813.03886.02873.03967a.08938.08938,0,0,0,.09084-.06588Zm1.3053-1.7531a.07887.07887,0,0,0-.08771-.06892l-.01063.002c-.45.07282-.80831.33977-1.25821.42086-.17307.03118-.10424.24219-.2376.32645-.10032.0634-.19128.13755-.293.1992-.52224.31659-1.00319.67948-1.52108.99806a4.60632,4.60632,0,0,1-1.34046.78575.66323.66323,0,0,0-.21911.1475c-.4547.35062-.82279.769-1.24523,1.1451a1.03045,1.03045,0,0,0-.18893.27318.10668.10668,0,0,0,.01426.10951c.03777.03712.09043.00352.10674-.02839a.6126.6126,0,0,1,.34389-.26207,2.301,2.301,0,0,0,1.01381-.54851c.29626-.02666.40835-.23486.56691-.4022a1.68311,1.68311,0,0,1,.2823-.21024c.63512-.42971,1.33557-.78629,1.94131-1.25048a1.90261,1.90261,0,0,1,.29557-.25124,1.039,1.039,0,0,1,.394-.1237c.222-.016.07474-.24426.23679-.30447.44382-.16487.622-.58869,1.04765-.7756a.24316.24316,0,0,0,.15875-.18178ZM180.638,24.17677c.05353-.00753.07071-.04154.08617-.07964a4.42135,4.42135,0,0,1,.33113-.73254c.10928-.17353.11166-.403.22058-.59431.01308-.02295-.018-.07942-.048-.10127-.07429-.05413-.10151.00618-.12544.05171-.11378.21649-.24307.42862-.33374.65192a6.2627,6.2627,0,0,0-.20761.68574.08462.08462,0,0,0,.07692.11839Zm15.98785-5.70618a1.7897,1.7897,0,0,0,.58387-.64859c.00314-.02164-.02048-.04691-.03565-.06855a.06317.06317,0,0,0-.04089.01037c-.1657.21913-.46224.35584-.54984.62381-.01182.03618-.0186.07256.04253.083Zm8.86966-5.24279c-.02574-.03091-.07054-.064-.10809-.03611a.74924.74924,0,0,0-.24365.22237c-.04691.10107-.316.13342-.17679.25178.09439.08025.22473-.08945.33228-.15028a.766.766,0,0,0,.19432-.21462c.01329-.01682.00195-.04757.00195-.07314Zm-9.43312-6.46044.15274-.13728c-.01777-.01227-.0399-.03765-.05256-.03463a.20035.20035,0,0,0-.14469.12766C196.01453,6.73144,196.04317,6.74892,196.06239,6.76736Zm-2.835,2.59484c.024-.01175.05862-.019.069-.03658.0092-.01559-.00845-.04254-.01424-.06447-.02279.01493-.04675.02875-.06811.045C193.18379,9.32927,193.18913,9.34878,193.22734,9.3622Zm-3.34018,3.27237c-.00967.00282-.024.0033-.028.009-.00673.0095-.01343.02514-.00857.03324.0173.0289.03682.02467.04673-.01085C189.8999,12.65668,189.89085,12.64509,189.88716,12.63457Z"/></svg>